<svg width="153" height="77" viewBox="0 0 153 77" fill="none" xmlns="http://www.w3.org/2000/svg">
<path d="M61.8 34.7C61.8 38.3 58.6 40.9 54.4 40.9H48.8V48.4H45.4V28.4H54.4C58.6 28.5 61.8 31.2 61.8 34.7ZM58.3 34.7C58.3 31.3 56.4 29 53.6 29H48.9V40.3H53.6C56.4 40.4 58.3 38.1 58.3 34.7Z" fill="#435464"/>
<path d="M131.6 47.8V48.5H117.1V28.5H120.5V47.8H131.6Z" fill="#435464"/>
<path d="M0 10.5C0 4.5 4.79999 0 10.8 0C14.6 0 17.7 1.89999 18.9 4.39999H17.8C16.7 2.29999 14.6 0.899994 11.6 0.899994C6.70001 0.899994 3.5 4.6 3.5 10.5C3.5 16.4 6.70001 20.1 11.6 20.1C14.6 20.1 16.7 18.7 17.8 16.6H18.9C17.6 19.1 14.6 21 10.8 21C4.79999 21 0 16.6 0 10.5Z" fill="#435464"/>
<path d="M31.7 56.5H30L21.2 76.5H22.4L24.9 70.8H34.4L36.9 76.5H40.5L31.7 56.5ZM34 70H25.2L29.6 59.9L34 70Z" fill="#435464"/>
<path d="M152.8 38.1H134.8V38.8H152.8V38.1Z" fill="#435464"/>
<path d="M18.4 71.3C18.4 74.3 15.7 76.5 12.2 76.5H2V56.5H11.3C14.9 56.5 17.5 58.7 17.5 61.4C17.5 63.7 15.7 65.4 12.8 66.1C16.2 66.7 18.4 68.6 18.4 71.3ZM5.39999 57.1V65.9H9.70001C12.4 65.9 14.1 64.4 14.1 61.6C14.1 58.8 12.6 57.1 10.2 57.1H5.39999ZM14.9 71.3C14.9 67.7 12.5 66.6 10.5 66.6H5.39999V76H11C13.4 75.9 14.9 74.1 14.9 71.3Z" fill="#435464"/>
<path d="M62.6 76.5H58.8C58.2 76.1 57.7 75.4 57.4 74.9L54.6 69.4C54.3 68.8 53.8 68.3 53.1 68H48.8V76.6H45.4V56.6H53.8C58 56.6 61.1 59 61.1 62.3C61.1 65.2 58.6 67.4 55.1 67.9C56.7 68.2 58 69 58.6 70.3L60.8 74.4C61.3 75.2 62 76.1 62.6 76.5ZM48.8 67.2H53C55.8 67.2 57.6 65.3 57.6 62.2C57.6 59.1 55.8 57.1 53 57.1H48.8V67.2Z" fill="#435464"/>
<path d="M66.2 20.5H62.4C61.8 20.1 61.3 19.4 61 18.9L58.2 13.4C57.9 12.8 57.4 12.3 56.7 12H52.4V20.6H49V0.600006H57.4C61.6 0.600006 64.7 2.99999 64.7 6.29999C64.7 9.19999 62.2 11.4 58.7 11.9C60.3 12.2 61.6 13 62.2 14.3L64.4 18.4C64.9 19.2 65.6 20.1 66.2 20.5ZM52.4 11.2H56.6C59.4 11.2 61.2 9.30001 61.2 6.20001C61.2 3.10001 59.4 1.10001 56.6 1.10001H52.4V11.2Z" fill="#435464"/>
<path d="M21.9 10.5C21.9 4.5 26.5 0 32.7 0C38.8 0 43.5 4.5 43.5 10.5C43.5 16.5 38.9 21 32.7 21C26.5 21 21.9 16.5 21.9 10.5ZM39.8 10.5C39.8 4.6 37 0.700012 32.7 0.700012C28.4 0.700012 25.6 4.6 25.6 10.5C25.6 16.4 28.4 20.3 32.7 20.3C37 20.3 39.8 16.4 39.8 10.5Z" fill="#435464"/>
<path d="M65.1 38.5C65.1 32.5 69.7 28 75.9 28C82 28 86.7 32.5 86.7 38.5C86.7 44.5 82 49 75.9 49C69.7 49 65.1 44.5 65.1 38.5ZM83 38.5C83 32.6 80.2 28.7 75.9 28.7C71.6 28.7 68.8 32.6 68.8 38.5C68.8 44.4 71.6 48.3 75.9 48.3C80.1 48.3 83 44.4 83 38.5Z" fill="#435464"/>
<path d="M90.6 38.5C90.6 32.5 95.2 28 101.4 28C107.5 28 112.2 32.5 112.2 38.5C112.2 44.5 107.6 49 101.4 49C95.3 49 90.6 44.5 90.6 38.5ZM108.5 38.5C108.5 32.6 105.7 28.7 101.4 28.7C97.1 28.7 94.3 32.6 94.3 38.5C94.3 44.4 97.1 48.3 101.4 48.3C105.7 48.3 108.5 44.4 108.5 38.5Z" fill="#435464"/>
<path d="M87.9 0.5V20.5H86.6L71.6 3.70001V20.5H70.6V0.5H73.1L86.9 16V0.5H87.9Z" fill="#435464"/>
<path d="M131.5 20.5H127.7C127.1 20.1 126.6 19.4 126.3 18.9L123.5 13.4C123.2 12.8 122.7 12.3 122 12H117.7V20.6H114.3V0.600006H122.7C126.9 0.600006 130 2.99999 130 6.29999C130 9.19999 127.5 11.4 124 11.9C125.6 12.2 126.9 13 127.5 14.3L129.7 18.4C130.2 19.2 130.9 20.1 131.5 20.5ZM117.7 11.2H121.9C124.7 11.2 126.5 9.30001 126.5 6.20001C126.5 3.10001 124.7 1.10001 121.9 1.10001H117.7V11.2Z" fill="#435464"/>
<path d="M109.1 19.8V20.5H94.7V0.5H108.8V1.20001H98.1V9.70001H106.6V10.5H98.1V19.6H109.1V19.8Z" fill="#435464"/>
</svg>
