<svg width="346" height="217" viewBox="0 0 346 217" fill="none" xmlns="http://www.w3.org/2000/svg">
<path d="M320.8 1.29999H315.9L291 58H294.4L301.4 41.9H328.3L335.3 58H345.5L320.8 1.29999ZM302.5 39.7L314.9 11.2L327.3 39.7H302.5Z" fill="#87362B"/>
<path d="M275.9 45.3L236.7 1.29999H229.5V58H232.5V10.5L275 58H278.8V1.29999H275.9V45.3Z" fill="#87362B"/>
<path d="M112.7 36.9C112.7 48.4 105.7 55.8 94.7 55.8C83.5 55.8 76.2 48.4 76.2 36.9V1.29999H66.6V35.6C66.6 49.6 77.2 58.8 91.9 58.8C108 58.8 115.5 50.5 115.5 37.4V1.20001H112.7V36.9Z" fill="#87362B"/>
<path d="M33.6 2.5C42.1 2.5 48.1 6.5 51.1 12.5H54.1C50.6 5.3 41.8 0 31.1 0C13.9 0 0.300049 12.6 0.300049 29.8C0.300049 47 13.8 59.6 31.1 59.6C41.8 59.6 50.6 54.2 54.1 47.1H51.1C48.1 53.1 42.1 57.1 33.6 57.1C19.7 57.1 10.5 46.7 10.5 29.9C10.5 12.9 19.6 2.5 33.6 2.5Z" fill="#87362B"/>
<path d="M161.3 2.5C169.8 2.5 175.8 6.5 178.8 12.5H181.8C178.3 5.3 169.5 0 158.8 0C141.6 0 128 12.6 128 29.8C128 47 141.5 59.6 158.8 59.6C169.5 59.6 178.3 54.2 181.8 47.1H178.8C175.8 53.1 169.8 57.1 161.3 57.1C147.4 57.1 138.2 46.7 138.2 29.9C138.2 12.9 147.4 2.5 161.3 2.5Z" fill="#87362B"/>
<path d="M207.8 1.29999H199V58H207.8V1.29999Z" fill="#87362B"/>
<path d="M275.9 204.1L236.7 160.1H229.5V216.8H232.5V169.2L275 216.8H278.8V160.1H275.9V204.1Z" fill="#87362B"/>
<path d="M207.8 160.1H199V216.8H207.8V160.1Z" fill="#87362B"/>
<path d="M309.8 160.1H301V216.8H309.8V160.1Z" fill="#87362B"/>
<path d="M157.9 207L137.5 160.1H127.3L152.1 216.8H157L181.8 160.1H178.4L157.9 207Z" fill="#87362B"/>
<path d="M239.5 135.3H208.3V109.5H232.2V107.1H208.3V82.8H238.7V80.7H198.6V137.4H239.5V135.3Z" fill="#87362B"/>
</svg>
