<svg width="133" height="105" viewBox="0 0 133 105" fill="none" xmlns="http://www.w3.org/2000/svg">
<path d="M56.5 47.3V48H42V28H45.4V47.3H56.5Z" fill="#435464"/>
<path d="M101.2 10C101.2 15.7 96.5 20 90.4 20H82.6V0H90.4C96.5 0 101.2 4.3 101.2 10ZM97.7 10C97.7 4.3 94.6 0.700012 89.9 0.700012H86V19.4H89.9C94.5 19.3 97.7 15.7 97.7 10Z" fill="#435464"/>
<path d="M37.5 94C37.5 99.7 32.8 104 26.7 104H18.9V84H26.7C32.8 84 37.5 88.3 37.5 94ZM34 94C34 88.3 30.9 84.7 26.2 84.7H22.3V103.4H26.2C30.9 103.3 34 99.7 34 94Z" fill="#435464"/>
<path d="M0 42.8H1.10001C1.00001 45.3 3.60001 47.5 7.20001 47.5C10.3 47.5 12.4 46.2 12.4 44.1C12.4 41.8 9.79999 40.7 6.89999 39.5C3.89999 38.3 0.299988 36.8 0.299988 33.2C0.299988 29.8 3.40001 27.5 7.60001 27.5C11.4 27.5 14.4 29.8 14.4 32.8H13.3C13 30.4 11.2 28.3 8 28.3C5.1 28.3 3.10001 29.8 3.10001 31.9C3.10001 34.3 5.90001 35.5 8.70001 36.5C12 37.8 15.3 39.1 15.3 42.6C15.3 46.1 12.1 48.4 7.70001 48.4C3.40001 48.5 0 46.1 0 42.8Z" fill="#435464"/>
<path d="M28.7 28H27L18.2 48H19.4L21.9 42.3H31.4L33.9 48H37.5L28.7 28ZM31 41.5H22.2L26.6 31.4L31 41.5Z" fill="#435464"/>
<path d="M133 19.3V20H118.6V0H132.7V0.700012H122V9.20001H130.5V10H122V19.1H133V19.3Z" fill="#435464"/>
<path d="M107.3 0H110.4V20H107.3V0Z" fill="#435464"/>
<path d="M44.1 84H47.2V104H44.1V84Z" fill="#435464"/>
<path d="M30.5 66.1V65.3H22.3V56.8H32.8V56H18.9V76H22.3V66.1H30.5Z" fill="#435464"/>
<path d="M87.7 75.3V76H73.3V56H87.4V56.7H76.7V65.2H85.2V66H76.7V75.1H87.7V75.3Z" fill="#435464"/>
<path d="M38.7 56H41.8V76H38.7V56Z" fill="#435464"/>
<path d="M66.4 56V76H65L50 59.2V76H49V56H51.5L65.3 71.5V56H66.4Z" fill="#435464"/>
<path d="M72 84V104H70.7L55.7 87.2V104H54.7V84H57.2L71 99.5V84H72Z" fill="#435464"/>
<path d="M79.4 84H82.5V104H79.4V84Z" fill="#435464"/>
<path d="M107.4 84V104H106L91 87.2V104H90V84H92.5L106.3 99.5V84H107.4Z" fill="#435464"/>
<path d="M110.6 47.3V48H96.2V28H110.3V28.7H99.6V37.2H108.1V38H99.6V47.1H110.6V47.3Z" fill="#435464"/>
<path d="M61.6 28H64.7V48H61.6V28Z" fill="#435464"/>
<path d="M133 28V48H131.7L116.7 31.2V48H115.7V28H118.2L132 43.5V28H133Z" fill="#435464"/>
<path d="M86.6 45C85.9 46.8 84.1 47.8 81.6 47.8C77 47.8 74.1 44 74.1 38.2C74.1 32.1 77.2 28.5 82.4 28.5C85.6 28.5 87.7 30.4 88.1 32.7H89.5C89.1 29.9 86.8 27.6 81.6 27.6C75.2 27.6 70.6 32.1 70.6 38C70.6 44 75.3 48.4 81.4 48.4C84.2 48.4 86.6 47.4 87.7 46L89.7 48.1H90V39.1H86.7V45H86.6Z" fill="#435464"/>
<path d="M129.6 101C128.9 102.8 127.1 103.8 124.6 103.8C120 103.8 117.1 100 117.1 94.2C117.1 88.1 120.2 84.5 125.4 84.5C128.6 84.5 130.7 86.4 131.1 88.7H132.5C132.1 85.9 129.8 83.6 124.6 83.6C118.2 83.6 113.6 88.1 113.6 94C113.6 100 118.3 104.4 124.4 104.4C127.2 104.4 129.6 103.4 130.7 102L132.7 104.1H133V95.1H129.7V101H129.6Z" fill="#435464"/>
</svg>
