<svg width="465" height="219" viewBox="0 0 465 219" fill="none" xmlns="http://www.w3.org/2000/svg">
<path d="M299.2 31.1H323.2V28.7H299.2V4.5H329.6V2.29999H289.5V59H330.4V56.9H299.2V31.1Z" fill="#87362B"/>
<path d="M163.2 56.9H131.9V31.1H155.9V28.7H131.9V4.5H162.4V2.29999H122.3V59H163.2V56.9Z" fill="#87362B"/>
<path d="M389.6 46.3L350.4 2.29999H343.3V59H346.2V11.5L388.8 59H392.5V2.29999H389.6V46.3Z" fill="#87362B"/>
<path d="M299.2 189.8H323.2V187.4H299.2V163.2H329.6V161.1H289.5V217.8H330.4V215.7H299.2V189.8Z" fill="#87362B"/>
<path d="M389.6 205.1L350.4 161.1H343.3V217.8H346.2V170.2L388.8 217.8H392.5V161.1H389.6V205.1Z" fill="#87362B"/>
<path d="M199.8 26.6C191.9 23.5 184 20.3 184 13.5C184 7.5 189.6 3.20001 198 3.20001C207 3.20001 212.3 9.29998 213 16.1H216.2C216.2 7.39998 207.8 1 197 1C185.1 1 176.2 7.59999 176.2 17.3C176.2 27.7 186.3 31.8 194.8 35.2C203.1 38.6 210.3 41.6 210.3 48.2C210.3 54.2 204.5 57.9 195.7 57.9C185.4 57.9 178 51.7 178.4 44.5H175.2C175.2 53.6 184.8 60.5 196.8 60.5C209.5 60.5 218.5 53.9 218.5 44C218.5 33.9 209.3 30.3 199.8 26.6Z" fill="#87362B"/>
<path d="M251.6 57.8C241.3 57.8 233.9 51.6 234.3 44.4H231C231 53.5 240.6 60.4 252.6 60.4C265.3 60.4 274.3 53.8 274.3 43.9C274.3 33.8 265 30.2 255.6 26.5C247.7 23.4 239.8 20.2 239.8 13.4C239.8 7.40002 245.4 3.09998 253.8 3.09998C262.8 3.09998 268.1 9.2 268.8 16H272C272 7.3 263.6 0.900024 252.8 0.900024C240.9 0.900024 232 7.50001 232 17.2C232 27.6 242.1 31.7 250.6 35.1C258.9 38.5 266.1 41.5 266.1 48.1C266.2 54.2 260.4 57.8 251.6 57.8Z" fill="#87362B"/>
<path d="M433.6 81.7H411.6V138.4H433.6C451 138.4 464.2 126.2 464.2 110.1C464.2 94 451 81.7 433.6 81.7ZM432.2 136.5H421.3V83.6H432.2C445.5 83.6 454.3 93.9 454.3 110C454.3 126.1 445.4 136.5 432.2 136.5Z" fill="#87362B"/>
<path d="M389.6 125.7L350.4 81.7H343.3V138.4H346.2V90.9L388.8 138.4H392.5V81.7H389.6V125.7Z" fill="#87362B"/>
<path d="M326.3 117.9V81.7H323.5V117.3C323.5 128.8 316.5 136.2 305.5 136.2C294.3 136.2 287 128.8 287 117.3V81.7H277.4V116C277.4 130 288 139.2 302.7 139.2C318.9 139.2 326.3 130.9 326.3 117.9Z" fill="#87362B"/>
<path d="M273.1 161.1H268.6L236 190.5V161.1H227.2V217.8H236V194.5L242.8 188.4L263.8 217.8H275L249.7 182.2L273.1 161.1Z" fill="#87362B"/>
<path d="M138.5 161.8H129.7V218.5H138.5V161.8Z" fill="#87362B"/>
<path d="M109.3 212.2L102.9 200.5C101.2 197 97.5 194.8 93.1 193.8C103 192.5 110.1 186.2 110.1 177.9C110.1 168.6 101.1 161.8 89.3 161.8H65.6V218.5H75.2V194H87.4C89.3 194.8 90.7 196.3 91.6 197.9L99.7 213.6C100.6 215.3 102 217.1 103.6 218.3H114.2C112.5 217.2 110.6 214.7 109.3 212.2ZM87.2 192.1H75.2V163.4H87.2C95 163.4 100.2 169.1 100.2 177.9C100.2 186.7 95 192.1 87.2 192.1Z" fill="#87362B"/>
<path d="M0 163.9H19.4V218.5H29V163.9H48.4V161.8H0V163.9Z" fill="#87362B"/>
<path d="M204.9 205.1L165.7 161.1H158.6V217.8H161.6V170.2L204.1 217.8H207.9V161.1H204.9V205.1Z" fill="#87362B"/>
</svg>
