<svg width="182" height="77" viewBox="0 0 182 77" fill="none" xmlns="http://www.w3.org/2000/svg">
<path d="M141 50.1C141 53.4 139.2 55.4 136.4 55.4C133.9 55.4 132 53.7 130.1 51.9C128.3 50.3 126.7 48.8 124.8 48.8C123 48.8 121.6 50.2 121.6 52H121C121 49.9 122.7 48.3 125 48.1C121 46.6 118.4 42.9 118.4 38.4C118.4 32.5 123 28 129.1 28C135.2 28 139.8 32.5 139.8 38.4C139.8 44.3 135.2 48.8 129.1 48.8H128.6C129.7 49.3 130.8 50 131.9 50.7C133.7 52 135.5 53.2 137.4 53.2C139.5 53.2 140.6 52 140.6 50H141V50.1ZM128.8 48.3C133.1 48.3 135.9 44.4 135.9 38.5C135.9 32.6 133.1 28.7 128.8 28.7C124.5 28.7 121.7 32.6 121.7 38.5C121.7 44.4 124.5 48.3 128.8 48.3Z" fill="#88701e"/>
<path d="M144.1 40.6V28.5H147.5V41C147.5 45.1 150.1 47.7 154 47.7C157.9 47.7 160.3 45.1 160.3 41V28.5H161.3V41.3C161.3 45.9 158.7 48.8 153 48.8C147.9 48.8 144.1 45.5 144.1 40.6Z" fill="#88701e"/>
<path d="M78.7 1.20001H71.9V20.5H68.5V1.20001H61.7V0.399994H78.8V1.20001H78.7Z" fill="#88701e"/>
<path d="M70.7 29.2H63.9V48.5H60.5V29.2H53.7V28.4H70.8V29.2H70.7Z" fill="#88701e"/>
<path d="M60.5 62.7C60.5 66.3 57.3 68.9 53.1 68.9H47.5V76.4H44.1V56.4H53.1C57.3 56.5 60.5 59.2 60.5 62.7ZM56.9 62.7C56.9 59.3 55 57 52.2 57H47.5V68.3H52.2C55.1 68.4 56.9 66.1 56.9 62.7Z" fill="#88701e"/>
<path d="M131.3 10.1H149.3V10.8H131.3V10.1Z" fill="#88701e"/>
<path d="M44.2 15.3H45.3C45.2 17.8 47.8 20 51.4 20C54.5 20 56.6 18.7 56.6 16.6C56.6 14.3 54 13.2 51.1 12C48.1 10.8 44.5 9.30001 44.5 5.70001C44.5 2.30001 47.6 0 51.8 0C55.6 0 58.6 2.29999 58.6 5.29999H57.5C57.2 2.89999 55.4 0.799988 52.2 0.799988C49.3 0.799988 47.3 2.29999 47.3 4.39999C47.3 6.79999 50.1 8 52.9 9C56.2 10.3 59.5 11.6 59.5 15.1C59.5 18.6 56.3 20.9 51.9 20.9C47.6 21 44.2 18.6 44.2 15.3Z" fill="#88701e"/>
<path d="M33.3 0.5H31.6L22.8 20.5H24L26.5 14.8H36L38.5 20.5H42.1L33.3 0.5ZM35.6 14H26.8L31.2 3.89999L35.6 14Z" fill="#88701e"/>
<path d="M38.7 75.8V76.5H24.2V56.5H27.6V75.8H38.7Z" fill="#88701e"/>
<path d="M10.5 56.5H8.79999L0 76.5H1.20001L3.70001 70.8H13.2L15.7 76.5H19.3L10.5 56.5ZM12.8 70H4L8.40002 59.9L12.8 70Z" fill="#88701e"/>
<path d="M93.6 28.5V48.5H90.4V38.6H79.5V48.5H76.3V28.5H79.5V37.8H90.4V28.5H93.6Z" fill="#88701e"/>
<path d="M104.5 23.3L108.5 26.5H109.7L107.7 23.3H104.5Z" fill="#88701e"/>
<path d="M115.4 47.8V48.5H101V28.5H115.1V29.2H104.4V37.7H112.9V38.5H104.4V47.6H115.4V47.8Z" fill="#88701e"/>
<path d="M181.5 47.8V48.5H167.1V28.5H181.2V29.2H170.5V37.7H179V38.5H170.5V47.6H181.5V47.8Z" fill="#88701e"/>
<path d="M103.5 10.5C103.5 4.5 108.1 0 114.3 0C120.4 0 125.1 4.5 125.1 10.5C125.1 16.5 120.5 21 114.3 21C108.1 21 103.5 16.5 103.5 10.5ZM121.3 10.5C121.3 4.6 118.5 0.700012 114.2 0.700012C109.9 0.700012 107.1 4.6 107.1 10.5C107.1 16.4 109.9 20.3 114.2 20.3C118.5 20.3 121.3 16.4 121.3 10.5Z" fill="#88701e"/>
<path d="M100.2 20.5H96.4C95.8 20.1 95.3 19.4 95 18.9L92.2 13.4C91.9 12.8 91.4 12.3 90.7 12H86.4V20.6H83V0.600006H91.4C95.6 0.600006 98.7 2.99999 98.7 6.29999C98.7 9.19999 96.2 11.4 92.7 11.9C94.3 12.2 95.6 13 96.2 14.3L98.4 18.4C98.9 19.2 99.6 20.1 100.2 20.5ZM86.4 11.2H90.6C93.4 11.2 95.2 9.30001 95.2 6.20001C95.2 3.10001 93.4 1.10001 90.6 1.10001H86.4V11.2Z" fill="#88701e"/>
<path d="M94 56.5V76.5H92.7L77.7 59.7V76.5H76.7V56.5H79.2L93 72V56.5H94Z" fill="#88701e"/>
<path d="M115.4 75.8V76.5H101V56.5H115.1V57.2H104.4V65.7H112.9V66.5H104.4V75.6H115.4V75.8Z" fill="#88701e"/>
<path d="M66.3 56.5H69.4V76.5H66.3V56.5Z" fill="#88701e"/>
<path d="M16.1 17.5C15.4 19.3 13.6 20.3 11.1 20.3C6.49998 20.3 3.59998 16.5 3.59998 10.7C3.59998 4.60001 6.70002 1 11.9 1C15.1 1 17 2.90001 17.4 5.20001H18.8C18.4 2.40001 16.3 0.100006 11.1 0.100006C4.69998 0.100006 0.0999756 4.6 0.0999756 10.5C0.0999756 16.5 4.80002 20.9 10.9 20.9C13.7 20.9 16.1 19.9 17.2 18.5L19 20.6H19.3V11.6H16.2V17.5H16.1Z" fill="#88701e"/>
</svg>
