<svg width="355" height="218" viewBox="0 0 355 218" fill="none" xmlns="http://www.w3.org/2000/svg">
<path d="M156.2 80.6H134.2V137.3H156.2C173.6 137.3 186.8 125.1 186.8 109C186.8 92.9 173.6 80.6 156.2 80.6ZM154.7 135.4H143.8V82.5H154.7C168 82.5 176.8 92.8 176.8 108.9C176.8 125.1 168 135.4 154.7 135.4Z" fill="#87362B"/>
<path d="M74.9 30H105.8V58H114.9V1.30005H105.8V27.6H74.9V1.30005H65.8V58H74.9V30Z" fill="#87362B"/>
<path d="M112.1 124.6L72.9 80.6H65.8V137.3H68.8V89.8L111.3 137.3H115.1V80.6H112.1V124.6Z" fill="#87362B"/>
<path d="M322.9 214.6V188.8H346.9V186.4H322.9V162.1H353.4V160H313.3V216.7H354.2V214.6H322.9Z" fill="#87362B"/>
<path d="M287.4 208.2C285.5 213.2 280.4 216.2 273.2 216.2C260.1 216.2 251.8 205.3 251.8 188.8C251.8 171.5 260.6 161.2 275.3 161.2C284.4 161.2 289.8 166.5 290.9 173.2H294.8C293.6 165.2 287.7 158.8 273 158.8C255 158.8 241.8 171.5 241.8 188.2C241.8 205.1 255.2 217.8 272.4 217.8C280.4 217.8 287.1 215.1 290.3 210.9L295.5 217H296.3V191.5H287.4V208.2Z" fill="#87362B"/>
<path d="M238.1 36.8C238.1 48.3 231.1 55.7 220.1 55.7C208.9 55.7 201.6 48.3 201.6 36.8V1.19995H192V35.5C192 49.5 202.6 58.7 217.3 58.7C233.4 58.7 240.9 50.4 240.9 37.3V1.09998H238.1V36.8Z" fill="#87362B"/>
<path d="M46.1 116.2C46.1 127.7 39.1 135.1 28.1 135.1C16.9 135.1 9.6 127.7 9.6 116.2V80.6H0V114.9C0 128.9 10.6 138.1 25.3 138.1C41.4 138.1 48.9 129.8 48.9 116.7V80.5H46.1V116.2Z" fill="#87362B"/>
<path d="M277.8 25.6C269.9 22.5 262 19.3 262 12.5C262 6.5 267.6 2.19995 276 2.19995C285 2.19995 290.3 8.29998 291 15.1H294.2C294.2 6.39998 285.8 0 275 0C263.1 0 254.2 6.60005 254.2 16.3C254.2 26.7 264.3 30.8 272.8 34.2C281.1 37.6 288.3 40.6 288.3 47.2C288.3 53.2 282.5 56.9 273.7 56.9C263.4 56.9 256 50.7 256.4 43.5H253.2C253.2 52.6 262.8 59.5 274.8 59.5C287.5 59.5 296.5 52.9 296.5 43C296.5 32.8 287.2 29.2 277.8 25.6Z" fill="#87362B"/>
<path d="M165.8 41.9L172.8 58H183L158.2 1.30005H153.3L128.4 58H131.8L138.8 41.9H165.8ZM152.4 11.1L164.8 39.6H140L152.4 11.1Z" fill="#87362B"/>
<path d="M143.8 160H134.1V216.7H175.3V214.6H143.8V160Z" fill="#87362B"/>
<path d="M204.9 160L180 216.7H183.4L190.4 200.6H217.3L224.3 216.7H234.5L209.7 160H204.9ZM191.5 198.3L203.9 169.8L216.3 198.3H191.5Z" fill="#87362B"/>
</svg>
