<svg width="164" height="49" viewBox="0 0 164 49" fill="none" xmlns="http://www.w3.org/2000/svg">
<path d="M48.9 0L40.0999 20H38.7999L33.7999 8.5L28.7 20H27.4L18.7 0H22.2999L29.5 16.5L33.4 7.5L30.1 0H33.7L40.9 16.5L48.0999 0H48.9Z" fill="#344452"/>
<path d="M53.1 0H56.1V20H53.1V0Z" fill="#344452"/>
<path d="M78.9001 0V20H77.9001L63 3.2V20H62.3V0H64.4001L78.2 15.5V0H78.9001Z" fill="#344452"/>
<path d="M100.3 0.6H93V20H89.6V0.6H82.3V0H100.3V0.6Z" fill="#344452"/>
<path d="M118 19.4V20H103.6V0H117.7V0.6H107V9.6H115.5V10.2H107V19.5H118V19.4Z" fill="#344452"/>
<path d="M139.6 20H135.8C135.2 19.6 134.7 18.9 134.4 18.3L131.5 12.8C131.2 12.2 130.7 11.7 130 11.4H125.9V20H122.5V0H130.7C134.9 0 138.1 2.4 138.1 5.7C138.1 8.6 135.6 10.9 132.1 11.3C133.7 11.6 135 12.4 135.6 13.7L137.9 17.8C138.3 18.7 139 19.6 139.6 20ZM125.9 10.9H130C132.8 10.9 134.6 8.9 134.6 5.8C134.6 2.7 132.8 0.7 130 0.7H125.9V10.9Z" fill="#344452"/>
<path d="M16.1 34.2C16.1 37.8 12.9 40.4 8.7 40.4H3.4V48H0V28H8.8C12.9 28 16.1 30.7 16.1 34.2ZM12.6 34.2C12.6 30.8 10.7 28.5 7.9 28.5H3.4V39.8H7.9C10.7 39.9 12.6 37.6 12.6 34.2Z" fill="#344452"/>
<path d="M29.1 42.3H19.6L17.1 48H16.3L25.1 28H26.4L35.1 48H31.5L29.1 42.3ZM28.8 41.7L24.3 31.4L19.8 41.7H28.8Z" fill="#344452"/>
<path d="M38 40.1V28H41.4V40.5C41.4 44.6 44 47.2 47.9 47.2C51.8 47.2 54.2 44.6 54.2 40.5V28H54.9V40.6C54.9 45.2 51.9 48.3 46.9 48.3C41.7 48.3 38 45 38 40.1Z" fill="#344452"/>
<path d="M59.3 42.7H60C60 45.5 62.7001 47.5 66.3001 47.5C69.4001 47.5 71.6 46 71.6 44C71.6 41.7 69.1 40.7 66.2 39.5C63.3 38.3 59.8 36.9 59.8 33.3C59.8 30 62.9 27.7 67 27.7C70.7 27.7 73.6 29.9 73.6 32.9H73C73 30.3 70.6 28.4 67.5 28.4C64.6 28.4 62.5 30 62.5 32.1C62.5 34.5 65.2 35.6 68 36.6C71.3 37.9 74.5 39.1 74.5 42.6C74.5 46 71.4 48.3 67 48.3C62.7 48.3 59.3 45.9 59.3 42.7Z" fill="#344452"/>
<path d="M93.4 47.4V48H78.9V28H93V28.6H82.3V37.6H90.8V38.2H82.3V47.5H93.4V47.4Z" fill="#344452"/>
<path d="M145.8 9.60001H163.8V10.3H145.8V9.60001Z" fill="#344452"/>
</svg>
