<svg width="430" height="299" viewBox="0 0 430 299" fill="none" xmlns="http://www.w3.org/2000/svg">
<path d="M103.7 31H134.7V59H143.8V2.30005H134.7V28.6H103.7V2.30005H94.7V59H103.7V31Z" fill="#87362B"/>
<path d="M329.1 56.8H297.8V31H321.8V28.6H297.8V4.40002H328.2V2.30005H288.2V59H329.1V56.8Z" fill="#87362B"/>
<path d="M189.6 60.4C207 60.4 220.1 47.6 220.1 30.6C220.1 13.6 207 0.800049 189.6 0.800049C172.2 0.800049 159.1 13.6 159.1 30.6C159.1 47.6 172.2 60.4 189.6 60.4ZM189.6 2.80005C201.7 2.80005 209.7 13.9 209.7 30.6C209.7 47.3 201.7 58.4 189.6 58.4C177.4 58.4 169.5 47.3 169.5 30.6C169.5 13.9 177.4 2.80005 189.6 2.80005Z" fill="#87362B"/>
<path d="M333.7 239C316.3 239 303.2 251.8 303.2 268.8C303.2 285.7 316.3 298.6 333.7 298.6C351.1 298.6 364.2 285.8 364.2 268.8C364.2 251.8 351 239 333.7 239ZM333.7 296.6C321.5 296.6 313.6 285.5 313.6 268.8C313.6 252 321.5 241 333.7 241C345.8 241 353.8 252.1 353.8 268.8C353.8 285.5 345.8 296.6 333.7 296.6Z" fill="#87362B"/>
<path d="M141 284.4L101.8 240.4H94.7V297.1H97.6V249.5L140.2 297.1H144V240.4H141V284.4Z" fill="#87362B"/>
<path d="M426.7 240.4V284.4L387.5 240.4H380.4V297.1H383.3V249.5L425.9 297.1H429.6V240.4H426.7Z" fill="#87362B"/>
<path d="M109.2 215.6H77.9V189.8H101.9V187.4H77.9V163.1H108.3V161H68.3V217.7H109.2V215.6Z" fill="#87362B"/>
<path d="M242.3 161H233.5V217.7H242.3V161Z" fill="#87362B"/>
<path d="M287 240.4H278.2V297.1H287V240.4Z" fill="#87362B"/>
<path d="M245.2 59H254.9V4.40002H274.2V2.30005H225.9V4.40002H245.2V59Z" fill="#87362B"/>
<path d="M214.2 242.5H233.5V297.1H243.2V242.5H262.5V240.4H214.2V242.5Z" fill="#87362B"/>
<path d="M197.8 217.7V163.1H217.2V161H168.8V163.1H188.2V217.7H197.8Z" fill="#87362B"/>
<path d="M386.6 56.8H355.1V2.30005H345.5V59H386.6V56.8Z" fill="#87362B"/>
<path d="M181.3 240.4L156.4 297.1H159.8L166.8 281H193.7L200.7 297.1H210.9L186.1 240.4H181.3ZM167.9 278.7L180.3 250.2L192.7 278.7H167.9Z" fill="#87362B"/>
<path d="M324.3 188.3H273.3V190.4H324.3V188.3Z" fill="#87362B"/>
<path d="M398.1 110C398.1 93.9 384.9 81.7 367.5 81.7H345.5V138.4H367.5C384.9 138.3 398.1 126.1 398.1 110ZM366 136.4H355.1V83.5H366C379.3 83.5 388.1 93.8 388.1 109.9C388.1 126.1 379.3 136.4 366 136.4Z" fill="#87362B"/>
<path d="M280 90.8L322.6 138.3H326.3V81.6H323.4V125.6L284.2 81.6H277.1V138.3H280V90.8Z" fill="#87362B"/>
<path d="M251.7 138.3H261.9L237.1 81.6H232.2L207.3 138.3H210.7L217.7 122.2H244.6L251.7 138.3ZM218.8 120L231.2 91.5L243.6 120H218.8Z" fill="#87362B"/>
<path d="M119.5 175.9C119.5 186.3 129.6 190.4 138.1 193.8C146.4 197.2 153.6 200.2 153.6 206.8C153.6 212.8 147.8 216.5 139 216.5C128.7 216.5 121.3 210.3 121.7 203.1H118.5C118.5 212.2 128.1 219.1 140.1 219.1C152.8 219.1 161.8 212.5 161.8 202.6C161.8 192.5 152.5 188.9 143.1 185.2C135.2 182.1 127.3 178.9 127.3 172.1C127.3 166.1 132.9 161.8 141.3 161.8C150.3 161.8 155.6 167.9 156.3 174.7H159.5C159.5 166 151.1 159.6 140.3 159.6C128.4 159.6 119.5 166.2 119.5 175.9Z" fill="#87362B"/>
<path d="M22.7 161H0.700012V217.7H22.7C40.1 217.7 53.3 205.5 53.3 189.4C53.3 173.3 40.1 161 22.7 161ZM21.2 215.8H10.3V162.9H21.2C34.5 162.9 43.3 173.2 43.3 189.3C43.3 205.4 34.5 215.8 21.2 215.8Z" fill="#87362B"/>
</svg>
