<svg width="120" height="105" viewBox="0 0 120 105" fill="none" xmlns="http://www.w3.org/2000/svg">
<path d="M39.5 99.7C38.6 98.5 37.6 97.1 36.7 95.7C35.8 94.4 35.1 93.3 34.5 92.2C37 91 38.8 89.3 38.8 87.4C38.8 85.5 37.1 84.1 34.7 84.1C31.8 84.1 29.8 86.1 29.8 88.7C29.8 90 30.3 91.6 31.2 93.2C28.2 94.6 26.3 97 26.3 99.5C26.3 102.5 28.8 105 32.9 105C35 105 36.9 104.3 38.3 103C39.7 104.3 41.1 105 42.5 105C44.2 105 45.5 104 45.9 102.5L45.5 102.3C45.3 102.9 44.7 103.4 44 103.4C42.9 103.4 41.5 102.2 40.1 100.5C40.9 99 41.4 97 41.4 94.8H41H40.6C40.6 96.6 40.2 98.3 39.5 99.7ZM35.2 84.6C36.6 84.6 37.4 85.7 37.4 87.3C37.4 89.2 36.1 90.5 34.1 91.6C33.3 90 32.8 88.7 32.8 87.5C32.8 85.8 33.8 84.6 35.2 84.6ZM37.5 102.3C36.6 103.2 35.5 103.8 34.2 103.8C31.3 103.8 29.3 101.6 29.3 98.4C29.3 96.4 30.1 94.6 31.4 93.7C32 94.9 32.8 96.1 33.7 97.3C34.9 99.2 36.2 101 37.5 102.3Z" fill="#435464"/>
<path d="M14.5 19.8V20.5H0V0.5H3.40002V19.8H14.5Z" fill="#435464"/>
<path d="M67.4 47.8V48.5H52.9V28.5H56.3V47.8H67.4Z" fill="#435464"/>
<path d="M49 10.5C49 16.2 44.3 20.5 38.2 20.5H30.4V0.5H38.2C44.3 0.5 49 4.8 49 10.5ZM45.5 10.5C45.5 4.8 42.4 1.20001 37.7 1.20001H33.8V19.9H37.7C42.4 19.8 45.5 16.2 45.5 10.5Z" fill="#435464"/>
<path d="M88 90.7C88 94.3 84.8 96.9 80.6 96.9H75V104.4H71.6V84.4H80.6C84.8 84.5 88 87.2 88 90.7ZM84.5 90.7C84.5 87.3 82.6 85 79.8 85H75V96.3H79.7C82.6 96.4 84.5 94.1 84.5 90.7Z" fill="#435464"/>
<path d="M49.9 99.3H51C50.9 101.8 53.5 104 57.1 104C60.2 104 62.3 102.7 62.3 100.6C62.3 98.3 59.7 97.2 56.8 96C53.8 94.8 50.2 93.3 50.2 89.7C50.2 86.3 53.3 84 57.5 84C61.3 84 64.3 86.3 64.3 89.3H63.2C62.9 86.9 61.1 84.8 57.9 84.8C55 84.8 53 86.3 53 88.4C53 90.8 55.8 92 58.6 93C61.9 94.3 65.2 95.6 65.2 99.1C65.2 102.6 62 104.9 57.6 104.9C53.3 105 49.9 102.6 49.9 99.3Z" fill="#435464"/>
<path d="M99.8 84.5H98.1L89.3 104.5H90.5L93 98.8H102.5L105 104.5H108.6L99.8 84.5ZM102.2 98H93.4L97.8 87.9L102.2 98Z" fill="#435464"/>
<path d="M88 34.7C88 38.3 84.8 40.9 80.6 40.9H75V48.4H71.6V28.4H80.6C84.8 28.5 88 31.2 88 34.7ZM84.5 34.7C84.5 31.3 82.6 29 79.8 29H75V40.3H79.7C82.6 40.4 84.5 38.1 84.5 34.7Z" fill="#435464"/>
<path d="M39.3 28.5H37.6L28.8 48.5H30L32.5 42.8H42L44.5 48.5H48.1L39.3 28.5ZM41.7 42H32.9L37.3 31.9L41.7 42Z" fill="#435464"/>
<path d="M16.3 62.7C16.3 66.3 13.1 68.9 8.90002 68.9H3.29999V76.4H0V56.4H9C13.1 56.5 16.3 59.2 16.3 62.7ZM12.8 62.7C12.8 59.3 10.9 57 8.09998 57H3.40002V68.3H8.09998C10.9 68.4 12.8 66.1 12.8 62.7Z" fill="#435464"/>
<path d="M86.2 75.8V76.5H71.7V56.5H75.1V75.8H86.2Z" fill="#435464"/>
<path d="M53.1 10.5C53.1 4.5 57.7 0 63.9 0C70 0 74.7 4.5 74.7 10.5C74.7 16.5 70.1 21 63.9 21C57.7 21 53.1 16.5 53.1 10.5ZM71 10.5C71 4.6 68.2 0.700012 63.9 0.700012C59.6 0.700012 56.8 4.6 56.8 10.5C56.8 16.4 59.6 20.3 63.9 20.3C68.2 20.3 71 16.4 71 10.5Z" fill="#435464"/>
<path d="M19.7 66.5C19.7 60.5 24.3 56 30.5 56C36.6 56 41.3 60.5 41.3 66.5C41.3 72.5 36.7 77 30.5 77C24.3 77 19.7 72.5 19.7 66.5ZM37.5 66.5C37.5 60.6 34.7 56.7 30.4 56.7C26.1 56.7 23.3 60.6 23.3 66.5C23.3 72.4 26.1 76.3 30.4 76.3C34.7 76.3 37.5 72.4 37.5 66.5Z" fill="#435464"/>
<path d="M45.2 66.5C45.2 60.5 49.8 56 56 56C62.1 56 66.8 60.5 66.8 66.5C66.8 72.5 62.2 77 56 77C49.8 77 45.2 72.5 45.2 66.5ZM63.1 66.5C63.1 60.6 60.3 56.7 56 56.7C51.7 56.7 48.9 60.6 48.9 66.5C48.9 72.4 51.7 76.3 56 76.3C60.2 76.3 63.1 72.4 63.1 66.5Z" fill="#435464"/>
<path d="M19.5 0.5H22.6V20.5H19.5V0.5Z" fill="#435464"/>
<path d="M92.8 28.5H95.9V48.5H92.8V28.5Z" fill="#435464"/>
<path d="M119.4 28.5V48.5H118.1L103.1 31.7V48.5H102.1V28.5H104.6L118.4 44V28.5H119.4Z" fill="#435464"/>
</svg>
