<svg width="201" height="79" viewBox="0 0 201 79" fill="none" xmlns="http://www.w3.org/2000/svg">
<path d="M60.2 11.1C60.2 5.09998 64.8 0.599976 71 0.599976C77.1 0.599976 81.8 5.09998 81.8 11.1C81.8 17.1 77.2 21.6 71 21.6C64.9 21.6 60.2 17.1 60.2 11.1ZM78.2 11.1C78.2 5.09998 75.3 1.19998 71 1.19998C66.7 1.19998 63.8 5.09998 63.8 11.1C63.8 17.1 66.6 21 71 21C75.3 21 78.2 17.1 78.2 11.1Z" fill="#87362B"/>
<path d="M40.8 15.9H41.9C41.8 18.4 44.4 20.6 48 20.6C51.1 20.6 53.2 19.3 53.2 17.2C53.2 14.9 50.6 13.8 47.7 12.6C44.7 11.4 41.1 9.89996 41.1 6.29996C41.1 2.89996 44.2 0.599976 48.4 0.599976C52.2 0.599976 55.2 2.89996 55.2 5.89996H54.1C53.8 3.49996 52 1.39996 48.8 1.39996C45.9 1.39996 43.9 2.89997 43.9 4.99997C43.9 7.39997 46.7 8.59998 49.5 9.59998C52.8 10.9 56.1 12.2 56.1 15.7C56.1 19.2 52.9 21.5 48.5 21.5C44.2 21.6 40.8 19.1 40.8 15.9Z" fill="#87362B"/>
<path d="M71.6 39.1C71.6 33.1 76.2 28.6 82.4 28.6C88.5 28.6 93.2 33.1 93.2 39.1C93.2 45.1 88.6 49.6 82.4 49.6C76.3 49.6 71.6 45.1 71.6 39.1ZM89.6 39.1C89.6 33.1 86.7 29.2 82.4 29.2C78.1 29.2 75.2 33.1 75.2 39.1C75.2 45.1 78 49 82.4 49C86.7 49 89.6 45.1 89.6 39.1Z" fill="#87362B"/>
<path d="M0.400024 43.9H1.5C1.4 46.4 3.99998 48.6 7.59998 48.6C10.7 48.6 12.8 47.3 12.8 45.2C12.8 42.9 10.2 41.8 7.29999 40.6C4.29999 39.4 0.700012 37.9 0.700012 34.3C0.700012 30.9 3.8 28.6 8 28.6C11.8 28.6 14.8 30.9 14.8 33.9H13.7C13.4 31.5 11.6 29.4 8.40002 29.4C5.50002 29.4 3.5 30.9 3.5 33C3.5 35.4 6.29998 36.6 9.09998 37.6C12.4 38.9 15.7 40.2 15.7 43.7C15.7 47.2 12.5 49.5 8.09998 49.5C3.79998 49.6 0.400024 47.1 0.400024 43.9Z" fill="#87362B"/>
<path d="M52.1 43.9H53.2C53.1 46.4 55.7 48.6 59.3 48.6C62.4 48.6 64.5 47.3 64.5 45.2C64.5 42.9 61.9 41.8 59 40.6C56 39.4 52.4 37.9 52.4 34.3C52.4 30.9 55.5 28.6 59.7 28.6C63.5 28.6 66.5 30.9 66.5 33.9H65.4C65.1 31.5 63.3 29.4 60.1 29.4C57.2 29.4 55.2 30.9 55.2 33C55.2 35.4 58 36.6 60.8 37.6C64.1 38.9 67.4 40.2 67.4 43.7C67.4 47.2 64.2 49.5 59.8 49.5C55.4 49.6 52.1 47.1 52.1 43.9Z" fill="#87362B"/>
<path d="M115.1 29.1V49.1H113.8L98.8 32.3V49.1H97.8V29.1H100.3L114.1 44.6V29.1H115.1Z" fill="#87362B"/>
<path d="M178.6 21H174.8C174.2 20.6 173.7 19.9 173.4 19.4L170.6 13.9C170.3 13.3 169.8 12.8 169.1 12.5H164.8V21.1H161.4V1.09998H169.8C174 1.09998 177.1 3.49996 177.1 6.79996C177.1 9.69996 174.6 11.9 171.1 12.4C172.7 12.7 174 13.5 174.6 14.8L176.8 18.9C177.3 19.8 178 20.6 178.6 21ZM164.8 11.8H169C171.8 11.8 173.6 9.89996 173.6 6.79996C173.6 3.69996 171.8 1.69998 169 1.69998H164.8V11.8Z" fill="#87362B"/>
<path d="M156.1 20.3V21H141.7V1H155.8V1.70001H145V10.2H153.5V11H145V20.1H156.1V20.3Z" fill="#87362B"/>
<path d="M200.8 10.7H182.8V11.3999H200.8V10.7Z" fill="#87362B"/>
<path d="M42.7 29.1H45.7V49.1H42.7V29.1Z" fill="#87362B"/>
<path d="M29.1 29.1H27.4L18.6 49.1H19.8L22.3 43.4H31.8L34.3 49.1H37.9L29.1 29.1ZM31.5 42.6H22.7L27.1 32.5L31.5 42.6Z" fill="#87362B"/>
<path d="M59.8 75.7V77.9H47V77.1L52.2 71C54.4 68.5 56.3 66.1 56.3 63C56.3 60.3 54.8 58.5 52.1 58.5C49.7 58.5 47.9 60.7 47.9 63H46.9C46.9 60 49.5 57.6 53.3 57.6C57.1 57.6 59.8 59.9 59.8 62.9C59.8 65.9 57.8 67.7 53.9 71.5L49.6 75.7H59.8Z" fill="#87362B"/>
<path d="M98.7 75.7V77.9H85.9V77.1L91.1 71C93.3 68.5 95.2 66.1 95.2 63C95.2 60.3 93.7 58.5 91 58.5C88.6 58.5 86.8 60.7 86.8 63H85.8C85.8 60 88.4 57.6 92.2 57.6C96 57.6 98.7 59.9 98.7 62.9C98.7 65.9 96.7 67.7 92.8 71.5L88.5 75.7H98.7Z" fill="#87362B"/>
<path d="M64.9 67.9C64.9 62 68.6 57.6 73.4 57.6C78.3 57.6 81.9 62 81.9 67.9C81.9 73.8 78.2 78.2 73.4 78.2C68.6 78.2 64.9 73.8 64.9 67.9ZM78.5 67.9C78.5 61.9 76.6 58.2 73.5 58.2C70.4 58.2 68.5 61.9 68.5 67.9C68.5 73.9 70.4 77.6 73.5 77.6C76.5 77.7 78.5 73.9 78.5 67.9Z" fill="#87362B"/>
<path d="M116.3 72.9C116.3 76 113.4 78.2 109.2 78.2C105.4 78.2 102.7 76.2 102.7 73.5H103.5C103.5 75.5 105.6 77.3 108.1 77.3C111.1 77.3 112.9 75.5 112.9 72.5C112.9 69.7 111.2 67.9 108.6 67.9H106.6V67.1H108.6C110.9 67.1 112.3 65.5 112.3 62.9C112.3 60.2 110.8 58.5 108 58.5C105.7 58.5 103.7 60.3 103.7 62.3H103C103 59.6 105.6 57.6 109.3 57.6C113.1 57.6 115.8 59.7 115.8 62.5C115.8 64.9 113.9 66.8 111 67.5C114.2 68.2 116.3 70.2 116.3 72.9Z" fill="#87362B"/>
<path d="M103.3 1.09998L96.8 12.2L90.3 1.09998H86.5V21.1H87.5V2.89996L95.2 16.1H95.7L103.7 2.29996V21.1H107.1V1.09998H103.3Z" fill="#87362B"/>
<path d="M130.8 1.09998L124.3 12.2L117.8 1.09998H114V21.1H115V2.89996L122.7 16.1H123.2L131.2 2.29996V21.1H134.6V1.09998H130.8Z" fill="#87362B"/>
</svg>
