<svg width="370" height="298" viewBox="0 0 370 298" fill="none" xmlns="http://www.w3.org/2000/svg">
<path d="M307.2 187.4H256.2V189.5H307.2V187.4Z" fill="#87362B"/>
<path d="M135.1 43.1C135.1 33 125.8 29.4 116.4 25.7C108.5 22.6 100.6 19.4 100.6 12.6C100.6 6.59998 106.2 2.29998 114.6 2.29998C123.6 2.29998 128.9 8.39997 129.6 15.2H132.8C132.8 6.49998 124.4 0.0999756 113.6 0.0999756C101.7 0.0999756 92.8 6.69998 92.8 16.4C92.8 26.8 102.9 30.9 111.4 34.3C119.7 37.7 126.9 40.7 126.9 47.3C126.9 53.3 121.1 57 112.3 57C102 57 94.6 50.8 95 43.6H91.8C91.8 52.7 101.4 59.6 113.4 59.6C126.1 59.5 135.1 52.9 135.1 43.1Z" fill="#87362B"/>
<path d="M340.1 109.1C340.1 93 326.9 80.8 309.5 80.8H287.5V137.5H309.5C326.9 137.5 340.1 125.3 340.1 109.1ZM297.1 135.6V82.7H308C321.3 82.7 330.1 93 330.1 109.1C330.1 125.2 321.3 135.5 308 135.5H297.1V135.6Z" fill="#87362B"/>
<path d="M219.1 80.8V137.5H222V89.9L264.5 137.5H268.3V80.8H265.4V124.8L226.2 80.8H219.1Z" fill="#87362B"/>
<path d="M163 36.7H178.8C190.6 36.7 199.7 29.2 199.7 19C199.7 8.89999 190.6 1.29999 178.8 1.29999H153.4V58H163V36.7ZM163 2.99999H176.3C184.4 2.99999 189.7 9.39999 189.7 19C189.7 28.6 184.4 35 176.3 35H163V2.99999Z" fill="#87362B"/>
<path d="M213.7 42H240.6L247.6 58.1H257.8L232.9 1.39996H228L203.1 58.1H206.5L213.7 42ZM227.1 11.2L239.5 39.7H214.6L227.1 11.2Z" fill="#87362B"/>
<path d="M174.2 80.8L149.3 137.5H152.7L159.7 121.4H186.6L193.6 137.5H203.8L179 80.8H174.2ZM160.8 119.1L173.2 90.6L185.6 119.1H160.8Z" fill="#87362B"/>
<path d="M351.2 263.8C343.3 260.7 335.4 257.5 335.4 250.7C335.4 244.7 341 240.4 349.4 240.4C358.4 240.4 363.7 246.5 364.4 253.3H367.6C367.6 244.6 359.2 238.2 348.4 238.2C336.5 238.2 327.6 244.8 327.6 254.5C327.6 264.9 337.7 269 346.2 272.4C354.5 275.8 361.7 278.8 361.7 285.4C361.7 291.4 355.9 295.1 347.1 295.1C336.8 295.1 329.4 288.9 329.8 281.7H326.6C326.6 290.8 336.2 297.7 348.2 297.7C360.9 297.7 369.9 291.1 369.9 281.2C369.9 271.1 360.6 267.5 351.2 263.8Z" fill="#87362B"/>
<path d="M296.2 263.8C288.3 260.7 280.4 257.5 280.4 250.7C280.4 244.7 286 240.4 294.4 240.4C303.4 240.4 308.7 246.5 309.4 253.3H312.6C312.6 244.6 304.2 238.2 293.4 238.2C281.5 238.2 272.6 244.8 272.6 254.5C272.6 264.9 282.7 269 291.2 272.4C299.5 275.8 306.7 278.8 306.7 285.4C306.7 291.4 300.9 295.1 292.1 295.1C281.8 295.1 274.4 288.9 274.8 281.7H271.6C271.6 290.8 281.2 297.7 293.2 297.7C305.9 297.7 314.9 291.1 314.9 281.2C314.9 271.1 305.6 267.5 296.2 263.8Z" fill="#87362B"/>
<path d="M199.6 283.5L160.4 239.5H153.3V296.2H156.3V248.7L198.8 296.2H202.6V239.5H199.6V283.5Z" fill="#87362B"/>
<path d="M231.1 268.3H255.1V265.9H231.1V241.7H261.5V239.5H221.4V296.2H262.3V294.1H231.1V268.3Z" fill="#87362B"/>
<path d="M107.1 188.9H131.1V186.5H107.1V162.3H137.6V160.2H97.5V216.9H138.4V214.7H107.1V188.9Z" fill="#87362B"/>
<path d="M153.3 160.2V216.9H194.5V214.7H163V160.2H153.3Z" fill="#87362B"/>
<path d="M247 214.7H215.5V160.2H205.9V216.9H247V214.7Z" fill="#87362B"/>
<path d="M63.6 207.1L43.2 160.2H33.1L42.4 181.5L31.2 207.1L10.8 160.2H0.700012L25.4 216.9H29.2L43.5 184.1L57.8 216.9H61.6L86.4 160.2H84.2L63.6 207.1Z" fill="#87362B"/>
</svg>
