<svg width="370" height="298" viewBox="0 0 370 298" fill="none" xmlns="http://www.w3.org/2000/svg">
<path d="M306.6 187.4H255.6V189.5H306.6V187.4Z" fill="#87362B"/>
<path d="M134.4 43.1C134.4 33 125.1 29.4 115.7 25.7C107.8 22.6 99.9 19.4 99.9 12.6C99.9 6.6 105.5 2.3 113.9 2.3C122.9 2.3 128.2 8.4 128.9 15.2H132.1C132.2 6.4 123.8 0 113 0C101.1 0 92.2 6.6 92.2 16.3C92.2 26.7 102.3 30.8 110.8 34.2C119.1 37.6 126.3 40.6 126.3 47.2C126.3 53.2 120.5 56.9 111.7 56.9C101.4 56.9 94 50.7 94.4 43.5H91.2C91.2 52.6 100.8 59.5 112.8 59.5C125.5 59.5 134.4 52.9 134.4 43.1Z" fill="#87362B"/>
<path d="M339.4 109.1C339.4 93 326.2 80.8 308.8 80.8H286.8V137.5H308.8C326.2 137.5 339.4 125.3 339.4 109.1ZM296.4 135.6V82.7H307.3C320.6 82.7 329.4 93 329.4 109.1C329.4 125.2 320.6 135.5 307.3 135.5H296.4V135.6Z" fill="#87362B"/>
<path d="M218.4 80.8V137.5H221.4V89.9L263.9 137.5H267.7V80.8H264.7V124.8L225.5 80.8H218.4Z" fill="#87362B"/>
<path d="M177.9 138.3C194 138.3 201.5 130 201.5 116.9V80.8H198.7V116.4C198.7 127.9 191.7 135.3 180.7 135.3C169.5 135.3 162.2 127.9 162.2 116.4V80.8H152.6V115C152.7 129.1 163.3 138.3 177.9 138.3Z" fill="#87362B"/>
<path d="M162.3 36.7H178.1C189.9 36.7 199 29.2 199 19C199 8.89999 189.9 1.29999 178.1 1.29999H152.7V58H162.3V36.7ZM162.3 2.99999H175.6C183.7 2.99999 189 9.39999 189 19C189 28.6 183.7 35 175.6 35H162.3V2.99999Z" fill="#87362B"/>
<path d="M213 42H239.9L246.9 58.1H257L232.3 1.40002H227.4L202.5 58.1H205.9L213 42ZM226.4 11.2L238.8 39.7H214L226.4 11.2Z" fill="#87362B"/>
<path d="M350.5 263.8C342.6 260.7 334.7 257.5 334.7 250.7C334.7 244.7 340.3 240.4 348.7 240.4C357.7 240.4 363 246.5 363.7 253.3H366.9C366.9 244.6 358.5 238.2 347.7 238.2C335.8 238.2 326.9 244.8 326.9 254.5C326.9 264.9 337 269 345.5 272.4C353.8 275.8 361 278.8 361 285.4C361 291.4 355.2 295.1 346.4 295.1C336.1 295.1 328.7 288.9 329.1 281.7H326C326 290.8 335.6 297.7 347.6 297.7C360.3 297.7 369.3 291.1 369.3 281.2C369.2 271.1 359.9 267.5 350.5 263.8Z" fill="#87362B"/>
<path d="M295.5 263.8C287.6 260.7 279.7 257.5 279.7 250.7C279.7 244.7 285.3 240.4 293.7 240.4C302.7 240.4 308 246.5 308.7 253.3H311.9C311.9 244.6 303.5 238.2 292.7 238.2C280.8 238.2 271.9 244.8 271.9 254.5C271.9 264.9 282 269 290.5 272.4C298.8 275.8 306 278.8 306 285.4C306 291.4 300.2 295.1 291.4 295.1C281.1 295.1 273.7 288.9 274.1 281.7H271C271 290.8 280.6 297.7 292.6 297.7C305.3 297.7 314.3 291.1 314.3 281.2C314.2 271.1 304.9 267.5 295.5 263.8Z" fill="#87362B"/>
<path d="M199 283.5L159.8 239.5H152.7V296.2H155.6V248.7L198.2 296.2H201.9V239.5H199V283.5Z" fill="#87362B"/>
<path d="M230.4 268.3H254.4V265.9H230.4V241.7H260.9V239.5H220.8V296.2H261.7V294.1H230.4V268.3Z" fill="#87362B"/>
<path d="M106.5 188.9H130.4V186.5H106.5V162.3H136.9V160.2H96.8V216.9H137.7V214.7H106.5V188.9Z" fill="#87362B"/>
<path d="M152.7 160.2V216.9H193.8V214.7H162.3V160.2H152.7Z" fill="#87362B"/>
<path d="M246.3 214.7H214.8V160.2H205.2V216.9H246.3V214.7Z" fill="#87362B"/>
<path d="M62.9 207.1L42.5 160.2H32.4L41.7 181.5L30.5 207.1L10.1 160.2H0L24.8 216.9H28.5L42.8 184.1L57.2 216.9H60.9L85.8 160.2H83.5L62.9 207.1Z" fill="#87362B"/>
</svg>
