<svg width="370" height="298" viewBox="0 0 370 298" fill="none" xmlns="http://www.w3.org/2000/svg">
<path d="M306.9 187.4H255.9V189.5H306.9V187.4Z" fill="#87362B"/>
<path d="M134.7 43.1C134.7 33 125.4 29.4 116 25.7C108.1 22.6 100.2 19.4 100.2 12.6C100.2 6.59998 105.8 2.29998 114.2 2.29998C123.2 2.29998 128.5 8.39997 129.2 15.2H132.4C132.4 6.49998 124 0.0999756 113.2 0.0999756C101.3 0.0999756 92.4 6.69998 92.4 16.4C92.4 26.8 102.5 30.9 111 34.3C119.3 37.7 126.5 40.7 126.5 47.3C126.5 53.3 120.7 57 111.9 57C101.6 57 94.2 50.8 94.6 43.6H91.4C91.4 52.7 101 59.6 113 59.6C125.8 59.5 134.7 52.9 134.7 43.1Z" fill="#87362B"/>
<path d="M162.6 36.7H178.4C190.2 36.7 199.3 29.2 199.3 19C199.3 8.89999 190.2 1.29999 178.4 1.29999H153V58H162.6V36.7ZM162.6 2.99999H175.9C184 2.99999 189.3 9.39999 189.3 19C189.3 28.6 184 35 175.9 35H162.6V2.99999Z" fill="#87362B"/>
<path d="M213.3 42H240.2L247.2 58.1H257.4L232.6 1.39996H227.7L202.8 58.1H206.2L213.3 42ZM226.8 11.2L239.2 39.7H214.3L226.8 11.2Z" fill="#87362B"/>
<path d="M350.8 263.8C342.9 260.7 335 257.5 335 250.7C335 244.7 340.6 240.4 349 240.4C358 240.4 363.3 246.5 364 253.3H367.2C367.2 244.6 358.8 238.2 348 238.2C336.1 238.2 327.2 244.8 327.2 254.5C327.2 264.9 337.3 269 345.8 272.4C354.1 275.8 361.3 278.8 361.3 285.4C361.3 291.4 355.5 295.1 346.7 295.1C336.4 295.1 329 288.9 329.4 281.7H326.2C326.2 290.8 335.8 297.7 347.8 297.7C360.5 297.7 369.5 291.1 369.5 281.2C369.5 271.1 360.3 267.5 350.8 263.8Z" fill="#87362B"/>
<path d="M295.8 263.8C287.9 260.7 280 257.5 280 250.7C280 244.7 285.6 240.4 294 240.4C303 240.4 308.3 246.5 309 253.3H312.2C312.2 244.6 303.8 238.2 293 238.2C281.1 238.2 272.2 244.8 272.2 254.5C272.2 264.9 282.3 269 290.8 272.4C299.1 275.8 306.3 278.8 306.3 285.4C306.3 291.4 300.5 295.1 291.7 295.1C281.4 295.1 274 288.9 274.4 281.7H271.2C271.2 290.8 280.8 297.7 292.8 297.7C305.5 297.7 314.5 291.1 314.5 281.2C314.5 271.1 305.3 267.5 295.8 263.8Z" fill="#87362B"/>
<path d="M199.3 283.5L160.1 239.5H153V296.2H156V248.7L198.5 296.2H202.3V239.5H199.3V283.5Z" fill="#87362B"/>
<path d="M230.7 268.3H254.7V265.9H230.7V241.7H261.2V239.5H221.1V296.2H262V294.1H230.7V268.3Z" fill="#87362B"/>
<path d="M106.8 188.9H130.7V186.5H106.8V162.3H137.2V160.2H97.1V216.9H138V214.7H106.8V188.9Z" fill="#87362B"/>
<path d="M193.9 135.4H162.6V109.5H186.6V107.1H162.6V82.9H193.1V80.8H153V137.5H193.9V135.4Z" fill="#87362B"/>
<path d="M153 160.2V216.9H194.1V214.7H162.6V160.2H153Z" fill="#87362B"/>
<path d="M246.7 214.7H215.2V160.2H205.5V216.9H246.7V214.7Z" fill="#87362B"/>
<path d="M63.3 207.1L42.8 160.2H32.7L42 181.5L30.9 207.1L10.4 160.2H0.300049L25.1 216.9H28.8L43.2 184.1L57.5 216.9H61.2L86.1 160.2H83.8L63.3 207.1Z" fill="#87362B"/>
</svg>
