<svg width="188" height="77" viewBox="0 0 188 77" fill="none" xmlns="http://www.w3.org/2000/svg">
<path d="M122.4 10.5C122.4 4.5 127 0 133.2 0C139.3 0 144 4.5 144 10.5C144 16.5 139.3 21 133.1 21C127 21 122.4 16.5 122.4 10.5ZM140.2 10.5C140.2 4.6 137.4 0.7 133.1 0.7C128.8 0.7 126 4.6 126 10.5C126 16.4 128.8 20.3 133.1 20.3C137.4 20.3 140.2 16.4 140.2 10.5Z" fill="#87362B"/>
<path d="M166.2 0.5V20.5H164.9L149.9 3.7V20.5H148.9V0.5H151.4L165.1 16V0.5H166.2Z" fill="#87362B"/>
<path d="M113.7 0.5H116.8V20.5H113.7V0.5Z" fill="#87362B"/>
<path d="M187.5 19.8V20.5H173.1V0.5H187.2V1.2H176.5V9.7H185V10.5H176.5V19.6H187.5V19.8Z" fill="#87362B"/>
<path d="M49.2001 74.3V76.5H36.4001V75.7L41.6 69.6C43.8 67.1 45.7001 64.7 45.7001 61.6C45.7001 58.9 44.2 57.1 41.5 57.1C39.1 57.1 37.3 59.3 37.3 61.6H36.3C36.3 58.6 38.9001 56.2 42.7001 56.2C46.5001 56.2 49.2001 58.5 49.2001 61.5C49.2001 64.5 47.2 66.3 43.3 70.1L39 74.3H49.2001Z" fill="#87362B"/>
<path d="M87.9 74.3V76.5H75.1V75.7L80.3 69.6C82.5 67.1 84.4 64.7 84.4 61.6C84.4 58.9 82.9 57.1 80.2 57.1C77.8 57.1 76 59.3 76 61.6H75C75 58.6 77.6 56.2 81.4 56.2C85.2 56.2 87.9 58.5 87.9 61.5C87.9 64.5 85.9 66.3 82 70.1L77.7 74.3H87.9Z" fill="#87362B"/>
<path d="M54.2 66.5C54.2 60.6 57.9 56.2 62.7 56.2C67.6 56.2 71.1999 60.6 71.1999 66.5C71.1999 72.4 67.5 76.8 62.7 76.8C57.9 76.8 54.2 72.4 54.2 66.5ZM67.8 66.5C67.8 60.5 65.8999 56.8 62.7999 56.8C59.6999 56.8 57.7999 60.5 57.7999 66.5C57.7999 72.5 59.6999 76.2 62.7999 76.2C65.7999 76.2 67.8 72.5 67.8 66.5Z" fill="#87362B"/>
<path d="M105.5 71.4C105.5 74.5 102.6 76.7 98.3999 76.7C94.5999 76.7 91.8999 74.7 91.8999 72H92.6999C92.6999 74 94.7999 75.8 97.2999 75.8C100.3 75.8 102.1 74 102.1 71C102.1 68.2 100.4 66.4 97.7999 66.4H95.7999V65.6H97.7999C100.1 65.6 101.5 64 101.5 61.4C101.5 58.7 99.9999 57 97.1999 57C94.8999 57 92.8999 58.8 92.8999 60.8H92.0999C92.0999 58.1 94.6999 56.1 98.3999 56.1C102.2 56.1 104.9 58.2 104.9 61C104.9 63.4 103 65.3 100.1 66C103.3 66.8 105.5 68.8 105.5 71.4Z" fill="#87362B"/>
<path d="M98.7001 20.9C101.5 20.9 103.9 19.9 105 18.5L107 20.6H107.3V11.6H104V17.5C103.3 19.3 101.5 20.3 99.0001 20.3C94.4001 20.3 91.5001 16.5 91.5001 10.7C91.5001 4.60001 94.6001 1.00001 99.8001 1.00001C103 1.00001 105.1 2.90001 105.5 5.20001H106.9C106.5 2.40001 104.2 0.100006 99.0001 0.100006C92.6001 0.100006 88.0001 4.60001 88.0001 10.5C87.9001 16.4 92.6001 20.9 98.7001 20.9Z" fill="#87362B"/>
<path d="M66.8001 1.3H60V20.6H56.6V1.3H49.8V0.5H66.9001V1.3H66.8001Z" fill="#87362B"/>
<path d="M32.5 15.3H33.6C33.5 17.8 36.1 20 39.7 20C42.8 20 44.9 18.7 44.9 16.6C44.9 14.3 42.3 13.2 39.4 12C36.4 10.8 32.8 9.3 32.8 5.7C32.9 2.3 36 0 40.2 0C44 0 47 2.3 47 5.3H45.9C45.6 2.9 43.8 0.8 40.6 0.8C37.7 0.8 35.7 2.3 35.7 4.4C35.7 6.8 38.5 8 41.3 9C44.6 10.3 47.9 11.6 47.9 15.1C47.9 18.6 44.7 20.9 40.3 20.9C35.9 21 32.5 18.6 32.5 15.3Z" fill="#87362B"/>
<path d="M76.8 0.5H75.1L66.3 20.5H67.5L70 14.8H79.5L82 20.5H85.6L76.8 0.5ZM79.2 14H70.4L74.8 4L79.2 14Z" fill="#87362B"/>
<path d="M56.6001 28.5H59.7001V48.5H56.6001V28.5Z" fill="#87362B"/>
<path d="M95.7 28.5H94L85.2 48.5H86.4L88.9 42.8H98.4L100.9 48.5H104.5L95.7 28.5ZM98 42H89.2L93.6 32L98 42Z" fill="#87362B"/>
<path d="M76.5 45L69.3 28.5H65.7L74.4 48.5H76.1L84.9 28.5H83.7L76.5 45Z" fill="#87362B"/>
<path d="M51.3 29.3H44.5V48.6H41.1V29.3H34.3V28.5H51.4001V29.3H51.3Z" fill="#87362B"/>
<path d="M17.6001 43.3H18.7001C18.6001 45.8 21.2001 48 24.8001 48C27.9001 48 30.0001 46.7 30.0001 44.6C30.0001 42.3 27.4001 41.2 24.5001 40C21.5001 38.8 17.9001 37.3 17.9001 33.7C17.9001 30.3 21.0001 28 25.2001 28C29.0001 28 32.0001 30.3 32.0001 33.3H31.0001C30.7001 30.9 28.9001 28.8 25.7001 28.8C22.8001 28.8 20.8001 30.3 20.8001 32.4C20.8001 34.8 23.6001 36 26.4001 37C29.7001 38.3 33.0001 39.6 33.0001 43.1C33.0001 46.6 29.8001 48.9 25.4001 48.9C21.0001 49 17.6001 46.6 17.6001 43.3Z" fill="#87362B"/>
<path d="M3.4 38.6H11.9V37.8H3.4V29.3H14.1V28.5H0V48.5H14.4V47.8H3.4V38.6Z" fill="#87362B"/>
</svg>