<svg width="577" height="219" viewBox="0 0 577 219" fill="none" xmlns="http://www.w3.org/2000/svg">
<path d="M389.8 79.2C372.4 79.2 359.3 92 359.3 109C359.3 125.9 372.4 138.8 389.8 138.8C407.2 138.8 420.3 126 420.3 109C420.3 92 407.2 79.2 389.8 79.2ZM389.8 136.8C377.6 136.8 369.7 125.7 369.7 109C369.7 92.2 377.6 81.2 389.8 81.2C401.9 81.2 409.9 92.3 409.9 109C409.9 125.8 401.9 136.8 389.8 136.8Z" fill="#87362B"/>
<path d="M190.4 158.6C173 158.6 159.9 171.4 159.9 188.4C159.9 205.3 173 218.2 190.4 218.2C207.8 218.2 220.9 205.4 220.9 188.4C220.9 171.4 207.7 158.6 190.4 158.6ZM190.4 216.2C178.2 216.2 170.3 205.1 170.3 188.4C170.3 171.6 178.2 160.6 190.4 160.6C202.5 160.6 210.5 171.7 210.5 188.4C210.5 205.1 202.5 216.2 190.4 216.2Z" fill="#87362B"/>
<path d="M329.3 80.6H303.9V137.3H313.5V116H329.3C341.1 116 350.2 108.5 350.2 98.3C350.2 88.2 341.2 80.6 329.3 80.6ZM326.8 114.3H313.5V82.2H326.8C334.9 82.2 340.2 88.6 340.2 98.2C340.2 107.8 334.9 114.3 326.8 114.3Z" fill="#87362B"/>
<path d="M197 58.8C213.1 58.8 220.6 50.5 220.6 37.4V1.19995H217.8V36.8C217.8 48.3 210.8 55.7 199.8 55.7C188.6 55.7 181.3 48.3 181.3 36.8V1.19995H171.7V35.5C171.7 49.5 182.3 58.8 197 58.8Z" fill="#87362B"/>
<path d="M368.1 58.8C384.2 58.8 391.7 50.5 391.7 37.4V1.19995H388.9V36.8C388.9 48.3 381.9 55.7 370.9 55.7C359.7 55.7 352.4 48.3 352.4 36.8V1.19995H342.8V35.5C342.8 49.5 353.4 58.8 368.1 58.8Z" fill="#87362B"/>
<path d="M488.6 1.30005L463.7 58H467.1L474.1 41.9H501L508 58H518.2L493.4 1.30005H488.6ZM475.2 39.6L487.6 11.1L500 39.6H475.2Z" fill="#87362B"/>
<path d="M281.2 204L242 160H234.9V216.7H237.9V169.2L280.4 216.7H284.2V160H281.2V204Z" fill="#87362B"/>
<path d="M576.1 107.9H525.1V110H576.1V107.9Z" fill="#87362B"/>
<path d="M74.3 162.1H106.9L73.2 215.4V216.7H117.8V214.6H84.1L117.9 161.3V160H74.3V162.1Z" fill="#87362B"/>
<path d="M257.3 82.8V80.6H217.2V137.3H258.1V135.2H226.8V109.4H250.8V107H226.8V82.8H257.3Z" fill="#87362B"/>
<path d="M24.9 25.6C17 22.5 9.09998 19.3 9.09998 12.5C9.09998 6.5 14.7 2.19995 23.1 2.19995C32.1 2.19995 37.4 8.29998 38.1 15.1H41.3C41.3 6.39998 32.9 0 22.1 0C10.2 0 1.30005 6.60005 1.30005 16.3C1.30005 26.7 11.4 30.8 19.9 34.2C28.2 37.6 35.4 40.6 35.4 47.2C35.4 53.2 29.6 56.9 20.8 56.9C10.5 56.9 3.1 50.7 3.5 43.5H0.300049C0.300049 52.6 9.90002 59.5 21.9 59.5C34.6 59.5 43.6 52.9 43.6 43C43.6 32.8 34.3 29.2 24.9 25.6Z" fill="#87362B"/>
<path d="M457.1 104.9C449.2 101.8 441.3 98.6 441.3 91.8C441.3 85.8 446.9 81.5 455.3 81.5C464.3 81.5 469.6 87.6 470.3 94.4H473.5C473.5 85.7 465.1 79.3 454.3 79.3C442.4 79.3 433.5 85.9 433.5 95.6C433.5 106 443.6 110.1 452.1 113.5C460.4 116.9 467.6 119.9 467.6 126.5C467.6 132.5 461.8 136.2 453 136.2C442.7 136.2 435.3 130 435.7 122.8H432.5C432.5 131.9 442.1 138.8 454.1 138.8C466.8 138.8 475.8 132.2 475.8 122.3C475.8 112.2 466.5 108.6 457.1 104.9Z" fill="#87362B"/>
<path d="M80.4 58V3.40002H99.7V1.30005H51.4V3.40002H70.7V58H80.4Z" fill="#87362B"/>
<path d="M248.5 58H258.1V3.40002H277.5V1.30005H229.1V3.40002H248.5V58Z" fill="#87362B"/>
<path d="M303.9 58H313.6V3.40002H332.9V1.30005H284.6V3.40002H303.9V58Z" fill="#87362B"/>
<path d="M501.6 80.6H492.8V137.3H501.6V80.6Z" fill="#87362B"/>
<path d="M144.8 160H136V216.7H144.8V160Z" fill="#87362B"/>
<path d="M155.5 51.7L149.1 40C147.4 36.5 143.7 34.3 139.3 33.3C149.2 32 156.3 25.7 156.3 17.4C156.3 8.10002 147.3 1.30005 135.5 1.30005H111.8V58H121.4V33.5H133.6C135.5 34.3 136.9 35.8 137.8 37.4L145.9 53.1C146.8 54.8 148.2 56.6 149.8 57.8H160.4C158.7 56.7001 156.7 54.2 155.5 51.7ZM133.4 31.6H121.4V2.90002H133.4C141.2 2.90002 146.4 8.60002 146.4 17.4C146.4 26.2 141.2 31.6 133.4 31.6Z" fill="#87362B"/>
<path d="M441.7 53.2C442.6 54.9 444 56.7 445.6 57.9H456.2C454.5 56.8 452.6 54.3 451.3 51.8L444.9 40.1C443.2 36.6 439.5 34.4 435.1 33.4C445 32.1 452.1 25.8 452.1 17.5C452.1 8.2 443.1 1.40002 431.3 1.40002H407.6V58.1H417.2V33.6H429.4C431.3 34.4 432.7 35.9 433.6 37.5L441.7 53.2ZM429.3 31.6H417.3V2.90002H429.3C437.1 2.90002 442.3 8.60002 442.3 17.4C442.2 26.2 437.1 31.6 429.3 31.6Z" fill="#87362B"/>
<path d="M313.6 188.8H337.5V186.4H313.6V162.1H344V160H303.9V216.7H344.8V214.6H313.6V188.8Z" fill="#87362B"/>
</svg>
