<svg width="378" height="219" viewBox="0 0 378 219" fill="none" xmlns="http://www.w3.org/2000/svg">
<path d="M310.4 160.9H266.9V163.1H299.4L265.7 216.3V217.6H310.3L310.4 215.5H276.7L310.4 162.2V160.9Z" fill="#87362B"/>
<path d="M322.2 56.8V58.9H281.3V2.19995H321.4V4.30005H290.9V28.5H314.9V30.9H290.9V56.7H322.2V56.8Z" fill="#87362B"/>
<path d="M279.8 136.1V138.2H238.9V81.5H279V83.6H248.5V107.8H272.5V110.2H248.5V136H279.8V136.1Z" fill="#87362B"/>
<path d="M71.3 44.3H74.5C74.1 51.5 81.6 57.7 91.8 57.7C100.6 57.7 106.4 54.1 106.4 48C106.4 41.5 99.1 38.4 90.9 35C82.4 31.5 72.3 27.5 72.3 17.1C72.3 7.39998 81.1 0.800049 93.1 0.800049C103.9 0.800049 112.3 7.20002 112.3 15.9H109.1C108.4 9.10002 103.1 3 94.1 3C85.7 3 80.1 7.30005 80.1 13.3C80.1 20.2 88 23.4 95.9 26.4C105.3 30 114.6 33.7001 114.6 43.8C114.6 53.6 105.7 60.3 92.9 60.3C80.9 60.3 71.3 53.4 71.3 44.3Z" fill="#87362B"/>
<path d="M334.7 44.3H337.9C337.5 51.5 345 57.7 355.2 57.7C364 57.7 369.8 54.1 369.8 48C369.8 41.5 362.5 38.4 354.3 35C345.8 31.5 335.7 27.5 335.7 17.1C335.7 7.39998 344.5 0.800049 356.5 0.800049C367.3 0.800049 375.7 7.20002 375.7 15.9H372.5C371.8 9.10002 366.5 3 357.5 3C349.1 3 343.5 7.30005 343.5 13.3C343.5 20.2 351.4 23.4 359.3 26.4C368.7 30 378 33.7001 378 43.8C378 53.6 369.1 60.3 356.3 60.3C344.2 60.3 334.7 53.4 334.7 44.3Z" fill="#87362B"/>
<path d="M0.300049 203H3.5C3.1 210.2 10.6 216.4 20.8 216.4C29.6 216.4 35.4 212.8 35.4 206.7C35.4 200.2 28.1 197.1 19.9 193.7C11.4 190.2 1.30005 186.2 1.30005 175.8C1.30005 166.1 10.1 159.5 22.1 159.5C32.9 159.5 41.3 165.9 41.3 174.6H38.1C37.4 167.8 32.1 161.7 23.1 161.7C14.7 161.7 9.09998 166 9.09998 172C9.09998 178.9 17 182.1 24.9 185.1C34.3 188.7 43.6 192.4 43.6 202.5C43.6 212.3 34.7 219 21.9 219C9.90002 219.1 0.300049 212.1 0.300049 203Z" fill="#87362B"/>
<path d="M130 36.5V2.19995H139.6V37.8C139.6 49.3 146.9 56.7 158.1 56.7C169.1 56.7 176.1 49.3 176.1 37.8V2.19995H178.9V38.4C178.9 51.4 171.4 59.8 155.3 59.8C140.6 59.7001 130 50.5 130 36.5Z" fill="#87362B"/>
<path d="M197.3 2.19995H206.1V58.9H197.3V2.19995Z" fill="#87362B"/>
<path d="M267.9 4.30005H248.5V58.9H238.9V4.30005H219.5V2.19995H267.9V4.30005Z" fill="#87362B"/>
<path d="M238.9 160.9H247.7V217.6H238.9V160.9Z" fill="#87362B"/>
<path d="M328.5 160.9H337.3V217.6H328.5V160.9Z" fill="#87362B"/>
<path d="M202.3 207.8L181.9 160.9H171.7L196.5 217.6H201.4L226.3 160.9H222.9L202.3 207.8Z" fill="#87362B"/>
<path d="M126.4 193.2H138.6C140.5 194 141.9 195.5 142.8 197.1L150.9 212.8C151.8 214.5 153.2 216.3 154.8 217.5H165.4C163.7 216.4 161.8 213.9 160.5 211.4L154.1 199.7C152.4 196.2 148.7 194 144.3 193C154.2 191.7 161.3 185.4 161.3 177.1C161.3 167.8 152.3 161 140.5 161H116.8V217.7H126.4V193.2ZM126.4 162.6H138.4C146.2 162.6 151.4 168.3 151.4 177.1C151.4 185.9 146.2 191.3 138.4 191.3H126.4V162.6Z" fill="#87362B"/>
<path d="M70.1 189.7H94.1V187.3H70.1V163.1H100.6V160.9H60.5V217.6H101.4V215.5H70.1V189.7Z" fill="#87362B"/>
</svg>
