<svg width="454" height="220" viewBox="0 0 454 220" fill="none" xmlns="http://www.w3.org/2000/svg">
<path d="M25.2 185.2C17.3 182.1 9.40002 178.9 9.40002 172.1C9.40002 166.1 15 161.8 23.4 161.8C32.4 161.8 37.7 167.9 38.4 174.7H41.6C41.6 166 33.2 159.6 22.4 159.6C10.5 159.6 1.59998 166.2 1.59998 175.9C1.59998 186.3 11.7 190.4 20.2 193.8C28.5 197.2 35.7 200.2 35.7 206.8C35.7 212.8 29.9 216.5 21.1 216.5C10.8 216.5 3.39999 210.3 3.79999 203.1H0.599976C0.599976 212.2 10.2 219.1 22.2 219.1C34.9 219.1 43.9 212.5 43.9 202.6C43.9 192.5 34.6 188.9 25.2 185.2Z" fill="#87362B"/>
<path d="M409.6 185.2C401.7 182.1 393.8 178.9 393.8 172.1C393.8 166.1 399.4 161.8 407.8 161.8C416.8 161.8 422.1 167.9 422.8 174.7H426C426 166 417.6 159.6 406.8 159.6C394.9 159.6 386 166.2 386 175.9C386 186.3 396.1 190.4 404.6 193.8C412.9 197.2 420.1 200.2 420.1 206.8C420.1 212.8 414.3 216.5 405.5 216.5C395.2 216.5 387.8 210.3 388.2 203.1H385C385 212.2 394.6 219.1 406.6 219.1C419.3 219.1 428.3 212.5 428.3 202.6C428.3 192.5 419 188.9 409.6 185.2Z" fill="#87362B"/>
<path d="M296.7 162.1C305.2 162.1 311.2 166.1 314.2 172.1H317.2C313.7 164.9 304.9 159.6 294.2 159.6C277 159.6 263.4 172.2 263.4 189.4C263.4 206.5 276.9 219.2 294.2 219.2C304.9 219.2 313.7 213.8 317.2 206.7H314.2C311.2 212.7 305.2 216.7 296.7 216.7C282.8 216.7 273.6 206.3 273.6 189.5C273.6 172.5 282.8 162.1 296.7 162.1Z" fill="#87362B"/>
<path d="M422.8 81.6H400.8V138.3H422.8C440.2 138.3 453.4 126.1 453.4 110C453.4 93.8 440.2 81.6 422.8 81.6ZM421.3 136.4H410.4V83.5H421.3C434.6 83.5 443.4 93.8 443.4 109.9C443.4 126 434.6 136.4 421.3 136.4Z" fill="#87362B"/>
<path d="M378.7 125.6L339.5 81.6H332.4V138.3H335.3V90.7L377.9 138.3H381.7V81.6H378.7V125.6Z" fill="#87362B"/>
<path d="M273.1 122.1H300L307 138.2H317.2L292.4 81.5H287.5L262.6 138.2H266L273.1 122.1ZM286.6 91.4L299 119.9H274.1L286.6 91.4Z" fill="#87362B"/>
<path d="M248 160.9H239.2V217.6H248V160.9Z" fill="#87362B"/>
<path d="M202.7 207.8L182.3 160.9H172.1L196.8 217.6H201.7L226.6 160.9H223.2L202.7 207.8Z" fill="#87362B"/>
<path d="M160.9 211.4L154.5 199.7C152.8 196.2 149.1 194 144.7 193C154.6 191.7 161.7 185.4 161.7 177.1C161.7 167.8 152.7 161 140.9 161H117.2V217.7H126.8V193.2H139C140.9 194 142.3 195.5 143.2 197.1L151.3 212.8C152.2 214.5 153.6 216.3 155.2 217.5H165.8C164.1 216.4 162.2 213.9 160.9 211.4ZM138.8 191.3H126.8V162.6H138.8C146.6 162.6 151.8 168.3 151.8 177.1C151.8 185.9 146.6 191.3 138.8 191.3Z" fill="#87362B"/>
<path d="M342 189.7H366V187.3H342V163.1H372.5V160.9H332.4V217.6H373.3V215.5H342V189.7Z" fill="#87362B"/>
<path d="M70.4 189.7H94.4V187.3H70.4V163.1H100.9V160.9H60.8V217.6H101.7V215.5H70.4V189.7Z" fill="#87362B"/>
<path d="M373.3 56.8H342V30.9H366V28.5H342V4.30005H372.5V2.19995H332.4V58.9H373.3V56.8Z" fill="#87362B"/>
<path d="M143 57.7C132.7 57.7 125.3 51.5 125.7 44.3H122.5C122.5 53.4 132.1 60.3 144.1 60.3C156.8 60.3 165.8 53.7001 165.8 43.8C165.8 33.7001 156.5 30.1 147.1 26.4C139.2 23.3 131.3 20.1 131.3 13.3C131.3 7.30005 136.9 3 145.3 3C154.3 3 159.6 9.10002 160.3 15.9H163.5C163.5 7.20002 155.1 0.800049 144.3 0.800049C132.4 0.800049 123.5 7.39998 123.5 17.1C123.5 27.5 133.6 31.6 142.1 35C150.4 38.4 157.6 41.4 157.6 48C157.6 54 151.8 57.7 143 57.7Z" fill="#87362B"/>
<path d="M405.6 57.7C395.3 57.7 387.9 51.5 388.3 44.3H385.1C385.1 53.4 394.7 60.3 406.7 60.3C419.4 60.3 428.4 53.7001 428.4 43.8C428.4 33.7001 419.1 30.1 409.7 26.4C401.8 23.3 393.9 20.1 393.9 13.3C393.9 7.30005 399.5 3 407.9 3C416.9 3 422.2 9.10002 422.9 15.9H426.1C426.1 7.20002 417.7 0.800049 406.9 0.800049C395 0.800049 386.1 7.39998 386.1 17.1C386.1 27.5 396.2 31.6 404.7 35C413 38.4 420.2 41.4 420.2 48C420.2 54 414.4 57.7 405.6 57.7Z" fill="#87362B"/>
<path d="M227.2 37.8C227.2 49.3 220.2 56.7 209.2 56.7C198 56.7 190.7 49.3 190.7 37.8V2.19995H181.1V36.5C181.1 50.5 191.7 59.7 206.4 59.7C222.5 59.7 230 51.4 230 38.3V2.09998H227.2V37.8Z" fill="#87362B"/>
<path d="M257.2 2.19995H248.4V58.9H257.2V2.19995Z" fill="#87362B"/>
<path d="M270.6 4.30005H290V58.9H299.6V4.30005H319V2.19995H270.6V4.30005Z" fill="#87362B"/>
</svg>
