<svg width="453" height="220" viewBox="0 0 453 220" fill="none" xmlns="http://www.w3.org/2000/svg">
<path d="M288 30.9H312V28.5H288V4.30005H318.4V2.19995H278.3V58.9H319.2V56.8H288V30.9Z" fill="#87362B"/>
<path d="M378 46.2L338.8 2.19995H331.7V58.9H334.7V11.4L377.2 58.9H381V2.19995H378V46.2Z" fill="#87362B"/>
<path d="M92.9 26.5C85 23.4 77.1 20.2 77.1 13.4C77.1 7.40002 82.7 3.09998 91.1 3.09998C100.1 3.09998 105.4 9.2 106.1 16H109.3C109.3 7.3 100.9 0.900024 90.1 0.900024C78.2 0.900024 69.3 7.49995 69.3 17.2C69.3 27.6 79.4 31.7 87.9 35.1C96.2 38.5 103.4 41.5 103.4 48.1C103.4 54.1 97.6 57.8 88.8 57.8C78.5 57.8 71.1 51.6 71.5 44.4H68.3C68.3 53.5 77.9 60.4 89.9 60.4C102.6 60.4 111.6 53.8 111.6 43.9C111.6 33.8 102.4 30.1 92.9 26.5Z" fill="#87362B"/>
<path d="M24.6 185.2C16.7 182.1 8.8 178.9 8.8 172.1C8.8 166.1 14.4 161.8 22.8 161.8C31.8 161.8 37.1 167.9 37.8 174.7H41C41 166 32.6 159.6 21.8 159.6C9.9 159.6 1 166.2 1 175.9C1 186.3 11.1 190.4 19.6 193.8C27.9 197.2 35.1 200.2 35.1 206.8C35.1 212.8 29.3 216.5 20.5 216.5C10.2 216.5 2.8 210.3 3.2 203.1H0C0 212.2 9.6 219.1 21.6 219.1C34.3 219.1 43.3 212.5 43.3 202.6C43.2 192.5 34 188.9 24.6 185.2Z" fill="#87362B"/>
<path d="M422.1 81.6H400.1V138.3H422.1C439.5 138.3 452.7 126.1 452.7 110C452.7 93.8 439.5 81.6 422.1 81.6ZM420.7 136.4H409.8V83.5H420.7C434 83.5 442.8 93.8 442.8 109.9C442.8 126 434 136.4 420.7 136.4Z" fill="#87362B"/>
<path d="M378 125.6L338.8 81.6H331.7V138.3H334.7V90.7L377.2 138.3H381V81.6H378V125.6Z" fill="#87362B"/>
<path d="M291.2 139.1C307.3 139.1 314.8 130.8 314.8 117.7V81.5H312V117.1C312 128.6 305 136 294 136C282.8 136 275.5 128.6 275.5 117.1V81.5H266V115.8C266 129.8 276.6 139.1 291.2 139.1Z" fill="#87362B"/>
<path d="M176 2.19995H173.2V37.8C173.2 49.3 166.2 56.7 155.2 56.7C144 56.7 136.7 49.3 136.7 37.8V2.19995H127.1V36.5C127.1 50.5 137.7 59.7 152.4 59.7C168.5 59.7 176 51.4 176 38.3V2.19995Z" fill="#87362B"/>
<path d="M296.1 162.1C304.6 162.1 310.6 166.1 313.6 172.1H316.6C313.1 164.9 304.3 159.6 293.6 159.6C276.4 159.6 262.8 172.2 262.8 189.4C262.8 206.5 276.3 219.2 293.6 219.2C304.3 219.2 313.1 213.8 316.6 206.7H313.6C310.6 212.7 304.6 216.7 296.1 216.7C282.2 216.7 273 206.3 273 189.5C273 172.5 282.1 162.1 296.1 162.1Z" fill="#87362B"/>
<path d="M203.2 2.19995H194.4V58.9H203.2V2.19995Z" fill="#87362B"/>
<path d="M245.6 58.9V4.30005H264.9V2.19995H216.6V4.30005H235.9V58.9H245.6Z" fill="#87362B"/>
<path d="M247.4 160.9H238.6V217.6H247.4V160.9Z" fill="#87362B"/>
<path d="M202 207.8L181.6 160.9H171.4L196.2 217.6H201L225.9 160.9H222.5L202 207.8Z" fill="#87362B"/>
<path d="M160.2 211.4L153.8 199.7C152.1 196.2 148.4 194 144 193C153.9 191.7 161 185.4 161 177.1C161 167.8 152 161 140.2 161H116.5V217.7H126.1V193.2H138.3C140.2 194 141.6 195.5 142.5 197.1L150.6 212.8C151.5 214.5 152.9 216.3 154.5 217.5H165.1C163.4 216.4 161.5 213.9 160.2 211.4ZM138.1 191.3H126.1V162.6H138.1C145.9 162.6 151.1 168.3 151.1 177.1C151.1 185.9 145.9 191.3 138.1 191.3Z" fill="#87362B"/>
<path d="M341.3 189.7H365.3V187.3H341.3V163.1H371.8V160.9H331.7V217.6H372.6V215.5H341.3V189.7Z" fill="#87362B"/>
<path d="M69.8 189.7H93.8V187.3H69.8V163.1H100.2V160.9H60.1V217.6H101V215.5H69.8V189.7Z" fill="#87362B"/>
</svg>
