<svg width="188" height="79" viewBox="0 0 188 79" fill="none" xmlns="http://www.w3.org/2000/svg">
<path d="M72.1 13.2V1.09998H75.5V13.6C75.5 17.7 78.1 20.3 82 20.3C85.9 20.3 88.3 17.7 88.3 13.6V1.09998H89.3V13.9C89.3 18.5 86.7 21.4 81 21.4C75.8 21.4 72.1 18.1 72.1 13.2Z" fill="#87362B"/>
<path d="M51.9 15.9H53C52.9 18.4 55.5 20.6 59.1 20.6C62.2 20.6 64.3 19.3 64.3 17.2C64.3 14.9 61.7 13.8 58.8 12.6C55.8 11.4 52.2 9.89996 52.2 6.29996C52.2 2.89996 55.3 0.599976 59.5 0.599976C63.3 0.599976 66.3 2.89996 66.3 5.89996H65.2C64.9 3.49996 63.1 1.39996 59.9 1.39996C57 1.39996 55 2.89997 55 4.99997C55 7.39997 57.8 8.59998 60.6 9.59998C63.9 10.9 67.2 12.2 67.2 15.7C67.2 19.2 64 21.5 59.6 21.5C55.3 21.6 51.9 19.1 51.9 15.9Z" fill="#87362B"/>
<path d="M80.3 39.1C80.3 33.1 84.9 28.6 91.1 28.6C97.2 28.6 101.9 33.1 101.9 39.1C101.9 45.1 97.3 49.6 91.1 49.6C84.9 49.6 80.3 45.1 80.3 39.1ZM98.2 39.1C98.2 33.1 95.3 29.2 91 29.2C86.7 29.2 83.8 33.1 83.8 39.1C83.8 45.1 86.6 49 91 49C95.4 49 98.2 45.1 98.2 39.1Z" fill="#87362B"/>
<path d="M0.400024 43.9H1.5C1.4 46.4 3.99998 48.6 7.59998 48.6C10.7 48.6 12.8 47.3 12.8 45.2C12.8 42.9 10.2 41.8 7.29999 40.6C4.29999 39.4 0.700012 37.9 0.700012 34.3C0.700012 30.9 3.8 28.6 8 28.6C11.8 28.6 14.8 30.9 14.8 33.9H13.7C13.4 31.5 11.6 29.4 8.40002 29.4C5.50002 29.4 3.5 30.9 3.5 33C3.5 35.4 6.29998 36.6 9.09998 37.6C12.4 38.9 15.7 40.2 15.7 43.7C15.7 47.2 12.5 49.5 8.09998 49.5C3.79998 49.6 0.400024 47.1 0.400024 43.9Z" fill="#87362B"/>
<path d="M60.7 43.9H61.8C61.7 46.4 64.3 48.6 67.9 48.6C71 48.6 73.1 47.3 73.1 45.2C73.1 42.9 70.5 41.8 67.6 40.6C64.6 39.4 61 37.9 61 34.3C61 30.9 64.1 28.6 68.3 28.6C72.1 28.6 75.1 30.9 75.1 33.9H74C73.7 31.5 71.9 29.4 68.7 29.4C65.8 29.4 63.8 30.9 63.8 33C63.8 35.4 66.6 36.6 69.4 37.6C72.7 38.9 76 40.2 76 43.7C76 47.2 72.8 49.5 68.4 49.5C64.1 49.6 60.7 47.1 60.7 43.9Z" fill="#87362B"/>
<path d="M123.7 29.1V49.1H122.4L107.4 32.3V49.1H106.4V29.1H108.9L122.7 44.6V29.1H123.7Z" fill="#87362B"/>
<path d="M187.2 21H183.4C182.8 20.6 182.3 19.9 182 19.4L179.2 13.9C178.9 13.3 178.4 12.8 177.7 12.5H173.4V21.1H170V1.09998H178.4C182.6 1.09998 185.7 3.49996 185.7 6.79996C185.7 9.69996 183.2 11.9 179.7 12.4C181.3 12.7 182.6 13.5 183.2 14.8L185.4 18.9C185.9 19.8 186.6 20.6 187.2 21ZM173.4 11.8H177.6C180.4 11.8 182.2 9.89996 182.2 6.79996C182.2 3.69996 180.4 1.69998 177.6 1.69998H173.4V11.8Z" fill="#87362B"/>
<path d="M164.7 20.3V21H150.3V1H164.4V1.70001H153.7V10.2H162.2V11H153.7V20.1H164.7V20.3Z" fill="#87362B"/>
<path d="M35.9 48.3V49H21.5V29H35.6V29.7H24.9V38.2H33.4V39H24.9V48.1H35.9V48.3Z" fill="#87362B"/>
<path d="M48.9 29.1H47.2L38.4 49.1H39.6L42.1 43.4H51.6L54.1 49.1H57.7L48.9 29.1ZM51.2 42.6H42.4L46.8 32.5L51.2 42.6Z" fill="#87362B"/>
<path d="M68.7 75.7V77.9H55.9V77.1L61.1 71C63.3 68.5 65.2 66.1 65.2 63C65.2 60.3 63.7 58.5 61 58.5C58.6 58.5 56.8 60.7 56.8 63H55.8C55.8 60 58.4 57.6 62.2 57.6C66 57.6 68.7 59.9 68.7 62.9C68.7 65.9 66.7 67.7 62.8 71.5L58.5 75.7H68.7Z" fill="#87362B"/>
<path d="M107.3 75.7V77.9H94.5V77.1L99.7 71C101.9 68.5 103.8 66.1 103.8 63C103.8 60.3 102.3 58.5 99.6 58.5C97.2 58.5 95.4 60.7 95.4 63H94.4C94.4 60 97 57.6 100.8 57.6C104.6 57.6 107.3 59.9 107.3 62.9C107.3 65.9 105.3 67.7 101.4 71.5L97.1 75.7H107.3Z" fill="#87362B"/>
<path d="M73.7 67.9C73.7 62 77.4 57.6 82.2 57.6C87.1 57.6 90.7 62 90.7 67.9C90.7 73.8 87 78.2 82.2 78.2C77.3 78.2 73.7 73.8 73.7 67.9ZM87.2 67.9C87.2 61.9 85.3 58.2 82.2 58.2C79.1 58.2 77.2 61.9 77.2 67.9C77.2 73.9 79.1 77.6 82.2 77.6C85.3 77.7 87.2 73.9 87.2 67.9Z" fill="#87362B"/>
<path d="M125 72.9C125 76 122.1 78.2 117.9 78.2C114.1 78.2 111.4 76.2 111.4 73.5H112.2C112.2 75.5 114.3 77.3 116.8 77.3C119.8 77.3 121.6 75.5 121.6 72.5C121.6 69.7 119.9 67.9 117.3 67.9H115.3V67.1H117.3C119.6 67.1 121 65.5 121 62.9C121 60.2 119.5 58.5 116.7 58.5C114.4 58.5 112.4 60.3 112.4 62.3H111.6C111.6 59.6 114.2 57.6 117.9 57.6C121.7 57.6 124.4 59.7 124.4 62.5C124.4 64.9 122.5 66.8 119.6 67.5C122.8 68.2 125 70.2 125 72.9Z" fill="#87362B"/>
<path d="M111.9 1.09998L105.4 12.2L98.9 1.09998H95.2V21.1H96.2V2.89996L103.9 16.1H104.3L112.4 2.29996V21.1H115.8V1.09998H111.9Z" fill="#87362B"/>
<path d="M139.4 1.09998L132.9 12.2L126.4 1.09998H122.7V21.1H123.7V2.89996L131.4 16.1H131.8L139.9 2.29996V21.1H143.3V1.09998H139.4Z" fill="#87362B"/>
</svg>
