<svg width="317" height="216" viewBox="0 0 317 216" fill="none" xmlns="http://www.w3.org/2000/svg">
<path d="M129.5 9.5L172 57H175.8V0.299988H172.8V44.3L133.6 0.299988H126.5V57H129.5V9.5Z" fill="#87362B"/>
<path d="M236.4 54.9H205.1V29.1H229.1V26.7H205.1V2.5H235.6V0.299988H195.5V57H236.4V54.9Z" fill="#87362B"/>
<path d="M63.6 47.2L43.2 0.299988H33.1L42.4 21.7L31.2 47.2L10.8 0.299988H0.700012L25.4 57H29.2L43.5 24.3L57.8 57H61.6L86.4 0.299988H84.2L63.6 47.2Z" fill="#87362B"/>
<path d="M285.9 79.7H263.9V136.4H285.9C303.3 136.4 316.5 124.2 316.5 108.1C316.5 91.9 303.3 79.7 285.9 79.7ZM284.4 134.5H273.5V81.6H284.4C297.7 81.6 306.5 91.9 306.5 108C306.5 124.2 297.7 134.5 284.4 134.5Z" fill="#87362B"/>
<path d="M49.6 159.1H27.6V215.8H49.6C67 215.8 80.2 203.6 80.2 187.5C80.2 171.3 67 159.1 49.6 159.1ZM48.2 213.9H37.3V161H48.2C61.5 161 70.3 171.3 70.3 187.4C70.3 203.6 61.5 213.9 48.2 213.9Z" fill="#87362B"/>
<path d="M241.8 123.7L202.6 79.7H195.5V136.4H198.5V88.9L241 136.4H244.8V79.7H241.8V123.7Z" fill="#87362B"/>
<path d="M150.6 79.7L125.7 136.4H129.1L136.1 120.3H163L170 136.4H180.2L155.4 79.7H150.6ZM137.2 118L149.6 89.5L162 118H137.2Z" fill="#87362B"/>
<path d="M106.8 0.299988H98V57H106.8V0.299988Z" fill="#87362B"/>
<path d="M172.8 203.1L133.6 159.1H126.5V215.8H129.5V168.2L172 215.8H175.8V159.1H172.8V203.1Z" fill="#87362B"/>
<path d="M205.1 187.8H229.1V185.4H205.1V161.2H235.6V159.1H195.5V215.8H236.4V213.7H205.1V187.8Z" fill="#87362B"/>
<path d="M106.8 159.1H98V215.8H106.8V159.1Z" fill="#87362B"/>
</svg>
