<svg width="112" height="22" viewBox="0 0 112 22" fill="none" xmlns="http://www.w3.org/2000/svg">
<path d="M15.8 1H0.399994V1.79999H11.9L0 20.5V21H15.7V20.3H3.89999L15.8 1.5V1Z" fill="#435464"/>
<path d="M63.2 11C63.2 5 67.8 0.5 74 0.5C80.1 0.5 84.8 5 84.8 11C84.8 17 80.2 21.5 74 21.5C67.8 21.5 63.2 17 63.2 11ZM81.1 11C81.1 5 78.2 1.09998 73.9 1.09998C69.6 1.09998 66.7 5 66.7 11C66.7 17 69.5 20.9 73.9 20.9C78.3 20.9 81.1 17 81.1 11Z" fill="#435464"/>
<path d="M90.3 0.700012C89.1 0.700012 88.2 1.60002 88.2 2.90002C88.2 4.10002 89.1 5 90.3 5C90.5 5 90.7 5.00002 90.9 4.90002C90.6 6.10002 89.7 7.29999 88.6 7.79999L89 8.40002C90.9 7.60002 92.5 5.20001 92.5 3.20001C92.6 1.60001 91.5 0.700012 90.3 0.700012Z" fill="#435464"/>
<path d="M96 15.8H97.1C97 18.3 99.6 20.5 103.2 20.5C106.3 20.5 108.4 19.2 108.4 17.1C108.4 14.8 105.8 13.7 102.9 12.5C99.9 11.3 96.3 9.80001 96.3 6.20001C96.3 2.80001 99.4 0.5 103.6 0.5C107.4 0.5 110.4 2.79999 110.4 5.79999H109.3C109 3.39999 107.2 1.29999 104 1.29999C101.1 1.29999 99.1 2.80002 99.1 4.90002C99.1 7.30002 101.9 8.5 104.7 9.5C108 10.8 111.3 12.1 111.3 15.6C111.3 19.1 108.1 21.4 103.7 21.4C99.4 21.5 96 19.1 96 15.8Z" fill="#435464"/>
<path d="M36.3 20.3V21H21.9V1H36V1.70001H25.3V10.2H33.8V11H25.3V20.1H36.3V20.3Z" fill="#435464"/>
<path d="M58.6 1V21H57.3L42.3 4.20001V21H41.3V1H43.8L57.6 16.5V1H58.6Z" fill="#435464"/>
</svg>
